<svg width="80" height="83" viewBox="0 0 80 83" fill="none" xmlns="http://www.w3.org/2000/svg"><defs><clipPath id="a"><path fill="#fff" fill-opacity="0" d="M0 0h80v83H0z"/></clipPath></defs><path fill="none" d="M0 0h80v83H0z"/><g clip-path="url(#a)" fill="#FFF"><path d="M65.65 36.01H14.39a3.28 3.28 0 0 1-3.27-3.28v-9.82a3.28 3.28 0 0 1 3.27-3.28h51.26c1.8 0 3.26 1.47 3.26 3.28v9.82a3.27 3.27 0 0 1-3.26 3.28ZM14.39 22.14a.78.78 0 0 0-.77.77v9.82c0 .42.35.77.77.77h51.26c.42 0 .76-.35.76-.77v-9.82a.77.77 0 0 0-.76-.77H14.39Z"/><path d="M58.5 69.66H21.53a6.3 6.3 0 0 1-6.28-6.31v-28.6a1.25 1.25 0 0 1 2.5 0v28.6a3.8 3.8 0 0 0 3.78 3.8H58.5a3.8 3.8 0 0 0 3.78-3.8v-28.6a1.25 1.25 0 0 1 2.5 0v28.6a6.3 6.3 0 0 1-6.28 6.31Z"/><path d="M40.02 69.66c-.69 0-1.25-.56-1.25-1.25V34.75a1.25 1.25 0 0 1 2.5 0v33.66c0 .69-.56 1.25-1.25 1.25ZM24.42 22.14a8.14 8.14 0 0 1-3.26-11A8.06 8.06 0 0 1 32.1 7.87c5.96 3.24 9.18 12.3 9.32 12.69l-2.36.83c-.03-.09-3.04-8.53-8.15-11.31a5.56 5.56 0 0 0-7.55 2.26 5.63 5.63 0 0 0 2.25 7.59l-1.19 2.21Z"/><path d="m55.62 22.14-1.19-2.21a5.61 5.61 0 0 0-1.06-10.3 5.54 5.54 0 0 0-4.24.45c-5.11 2.78-8.12 11.22-8.15 11.31l-2.36-.84c.13-.38 3.35-9.44 9.32-12.68a7.96 7.96 0 0 1 6.14-.64c2.07.61 3.77 2 4.79 3.91a8.04 8.04 0 0 1 .64 6.17 8.08 8.08 0 0 1-3.89 4.83ZM63.53 52.84H16.5a1.26 1.26 0 0 1 0-2.52h47.03a1.26 1.26 0 0 1 0 2.52Z"/></g></svg>