<svg width="24.801517" height="28.000000" viewBox="0 0 24.8015 28" fill="none" xmlns="http://www.w3.org/2000/svg" xmlns:xlink="http://www.w3.org/1999/xlink">
	<desc>
			Created with Pixso.
	</desc>
	<defs/>
	<path id="Vector" d="M24.77 0.76C24.67 0.31 24.29 0 23.86 0C23.86 0 23.86 0 23.85 0C18.92 0.03 6.91 0.91 2.06 8.38C-0.46 12.25 -0.67 17.29 1.42 23.34C1.43 23.39 1.47 23.42 1.49 23.46C0.74 25.43 0.45 26.75 0.44 26.79C0.33 27.33 0.66 27.86 1.16 27.97C1.23 27.99 1.29 28 1.36 28C1.79 28 2.18 27.67 2.28 27.21C2.3 27.1 4.68 16.83 13.13 10.83C13.56 10.52 13.68 9.9 13.39 9.44C13.1 8.98 12.52 8.85 12.09 9.16C7.3 12.57 4.35 17.17 2.62 20.82C1.38 16.24 1.7 12.44 3.6 9.51C7.35 3.75 16.23 2.36 21.58 2.07C20.43 3.87 19.17 7.17 19.17 13C19.17 16.12 18.34 18.52 16.71 20.14C14.09 22.73 9.83 22.97 6.71 22.72C6.2 22.67 5.75 23.09 5.71 23.64C5.67 24.19 6.06 24.67 6.57 24.71C7.19 24.76 7.86 24.8 8.55 24.8C11.72 24.8 15.42 24.13 17.98 21.6C20.02 19.59 21.05 16.7 21.05 13C21.05 3.9 24.26 1.9 24.28 1.89C24.67 1.68 24.87 1.21 24.77 0.76Z" fill="#FFFFFF" fill-opacity="1.000000" fill-rule="nonzero"/>
</svg>
