<svg width="25.000000" height="30.000000" viewBox="0 0 25 30" fill="none" xmlns="http://www.w3.org/2000/svg" xmlns:xlink="http://www.w3.org/1999/xlink">
	<desc>
			Created with Pixso.
	</desc>
	<defs/>
	<rect id="icon_eat" width="25.000000" height="30.000000" fill="#FFFFFF" fill-opacity="0"/>
	<path id="Knife" d="M18.61 0.07C18.99 -0.08 19.42 0 19.7 0.29C20.61 1.2 21.8 3.17 22.76 6.21C23.73 9.28 24.5 13.5 24.5 19C24.5 19.55 24.05 20 23.5 20L20 20L20 29C20 29.55 19.55 30 19 30C18.44 30 18 29.55 18 29L18 1C18 0.59 18.24 0.23 18.61 0.07ZM20 18L22.49 18C22.4 13.18 21.7 9.48 20.85 6.81C20.58 5.93 20.28 5.17 20 4.51L20 18Z" fill="#FFFFFF" fill-opacity="1.000000" fill-rule="evenodd"/>
	<path id="Fork" d="M1.5 0C2.05 0 2.5 0.44 2.5 1L2.5 6.5C2.5 7.05 2.69 7.81 3.2 8.41C3.55 8.84 4.11 9.23 5 9.4L5 1C5 0.44 5.44 0 6 0C6.55 0 7 0.44 7 1L7 9.4C7.88 9.23 8.44 8.84 8.79 8.41C9.3 7.81 9.5 7.05 9.5 6.5L9.5 1C9.5 0.44 9.94 0 10.5 0C11.05 0 11.5 0.44 11.5 1L11.5 6.5C11.5 7.44 11.19 8.68 10.32 9.7C9.58 10.58 8.49 11.23 7 11.43L7 29C7 29.55 6.55 30 6 30C5.44 30 5 29.55 5 29L5 11.43C3.5 11.23 2.41 10.58 1.67 9.7C0.8 8.68 0.5 7.44 0.5 6.5L0.5 1C0.5 0.44 0.94 0 1.5 0Z" fill="#FFFFFF" fill-opacity="1.000000" fill-rule="evenodd"/>
</svg>
