<svg width="26.093185" height="31.000000" viewBox="0 0 26.0932 31" fill="none" xmlns="http://www.w3.org/2000/svg" xmlns:xlink="http://www.w3.org/1999/xlink">
    <defs/>
    <path id="Vector" d="M5.55 0C4.49 0 4.49 1.58 5.55 1.58L12.22 1.58L12.22 3.18C5.39 3.62 0 9.41 0 16.48C0 20.49 1.74 24.11 4.51 26.55C4.99 26.97 5.05 27.72 4.61 28.18L3.08 29.74C2.33 30.42 3.44 31.49 4.11 30.74L6.12 28.7C6.47 28.36 6.99 28.28 7.43 28.49C9.16 29.33 11.05 29.78 12.98 29.79C14.9 29.8 16.8 29.38 18.54 28.55C18.96 28.34 19.5 28.43 19.84 28.77L21.78 30.74C22.46 31.37 23.44 30.42 22.82 29.74L21.37 28.26C20.92 27.8 20.99 27.06 21.48 26.62C22.94 25.35 24.1 23.79 24.89 22.04C25.69 20.29 26.1 18.39 26.09 16.47C26.09 9.4 20.66 3.59 13.82 3.18L13.82 1.58L20.49 1.58C21.55 1.58 21.55 0 20.49 0L5.55 0ZM1.44 16.47C1.44 9.94 6.63 4.65 13.04 4.65C19.44 4.65 24.64 9.94 24.64 16.47C24.64 23.01 19.44 28.31 13.04 28.31C6.64 28.31 1.44 23.01 1.44 16.47ZM12.23 8.37C12.23 7.28 13.89 7.28 13.89 8.37L13.89 17.01C13.89 17.23 13.81 17.45 13.65 17.61C13.48 17.76 13.27 17.85 13.04 17.85C12.83 17.85 12.62 17.77 12.47 17.62C12.32 17.47 12.23 17.27 12.23 17.06L12.23 8.37ZM7.24 10.99C7.55 10.99 7.84 10.87 8.06 10.66C8.28 10.44 8.4 10.15 8.4 9.84C8.4 9.54 8.28 9.24 8.06 9.03C7.84 8.81 7.55 8.69 7.24 8.69C6.95 8.72 6.68 8.85 6.49 9.06C6.29 9.27 6.19 9.55 6.19 9.84C6.19 10.12 6.29 10.4 6.49 10.61C6.68 10.82 6.95 10.95 7.24 10.98L7.24 10.99ZM18.83 10.99C19.14 10.99 19.44 10.87 19.66 10.66C19.87 10.44 20 10.15 20 9.84C20 9.54 19.87 9.24 19.66 9.03C19.44 8.81 19.14 8.69 18.83 8.69C18.55 8.72 18.28 8.85 18.08 9.06C17.89 9.27 17.78 9.55 17.78 9.84C17.78 10.12 17.89 10.4 18.08 10.61C18.28 10.82 18.55 10.95 18.83 10.98L18.83 10.99ZM8.4 23.58C8.4 25.11 6.08 25.11 6.08 23.58C6.08 22.05 8.4 22.05 8.4 23.58ZM13.04 27.02C13.2 27.04 13.37 27.02 13.52 26.97C13.67 26.92 13.81 26.84 13.93 26.73C14.05 26.62 14.15 26.49 14.22 26.34C14.28 26.2 14.32 26.04 14.32 25.88C14.32 25.72 14.28 25.56 14.22 25.41C14.15 25.27 14.05 25.14 13.93 25.03C13.81 24.92 13.67 24.84 13.52 24.79C13.37 24.74 13.2 24.72 13.04 24.73C12.75 24.76 12.49 24.89 12.29 25.11C12.1 25.32 11.99 25.59 11.99 25.88C11.99 26.16 12.1 26.44 12.29 26.65C12.49 26.86 12.75 27 13.04 27.02ZM4.92 16.64C4.94 16.8 4.92 16.96 4.87 17.11C4.82 17.26 4.74 17.4 4.63 17.52C4.52 17.64 4.38 17.74 4.24 17.8C4.09 17.87 3.93 17.9 3.77 17.9C3.6 17.9 3.44 17.87 3.3 17.8C3.15 17.74 3.01 17.64 2.91 17.52C2.8 17.4 2.71 17.26 2.66 17.11C2.61 16.96 2.59 16.8 2.61 16.64C2.64 16.35 2.77 16.09 2.98 15.9C3.2 15.71 3.48 15.6 3.77 15.6C4.06 15.6 4.33 15.71 4.55 15.9C4.76 16.09 4.9 16.35 4.92 16.64ZM22.31 17.79C22.47 17.8 22.64 17.79 22.79 17.74C22.94 17.69 23.08 17.6 23.2 17.5C23.32 17.39 23.42 17.26 23.49 17.11C23.55 16.96 23.59 16.8 23.59 16.64C23.59 16.48 23.55 16.33 23.49 16.18C23.42 16.03 23.32 15.9 23.2 15.79C23.08 15.68 22.94 15.6 22.79 15.55C22.64 15.5 22.47 15.48 22.31 15.5C22.02 15.53 21.76 15.66 21.56 15.87C21.37 16.08 21.26 16.36 21.26 16.64C21.26 16.93 21.37 17.21 21.56 17.42C21.76 17.63 22.02 17.76 22.31 17.79ZM20 23.59C20 25.11 17.67 25.11 17.67 23.58C17.67 22.05 20 22.05 20 23.58L20 23.59Z" fill="#FFFFFF" fill-opacity="1.000000" fill-rule="nonzero"/>
</svg>
