<svg width="70.032959" height="97.000000" viewBox="0 0 70.033 97" fill="none" xmlns="http://www.w3.org/2000/svg" xmlns:xlink="http://www.w3.org/1999/xlink">
    <defs/>
    <path id="Vector" d="M54.84 0L54.46 0C53.81 0.36 53.3 0.91 53 1.59C52.43 2.67 52 3.81 51.71 5C51.64 5.35 51.46 5.68 51.19 5.92C50.93 6.16 50.59 6.31 50.23 6.34C49.12 6.52 48.08 6.96 47.17 7.62C46.27 8.27 45.52 9.13 45 10.12C44.27 11.4 43.65 12.73 43.15 14.12C41.73 17.79 40.64 21.6 39.3 25.31C38.66 27 38.64 27 36.74 27C34.47 27 34.63 26.65 34.59 29.15C34.59 29.94 34.84 30.34 35.68 30.3C35.93 30.3 36.33 30.17 36.43 30.51C36.53 30.85 36.18 31 35.99 31.2C34.8 32.4 33.3 33.24 31.66 33.64C29.76 34.15 27.81 34.55 25.97 35.16C21.22 36.75 16.83 38.98 13.41 42.74C11.41 45.07 9.8 47.72 8.67 50.58C5 59.22 3.21 68.32 1.83 77.51C1.18 81.82 0.72 86.15 0.38 90.51C0.19 92.65 0 94.82 0 97L33.33 97C33.38 96.55 33.3 96.11 33.09 95.72C32.77 94.92 32.25 94.22 31.58 93.68C30.91 93.14 30.11 92.78 29.27 92.65C28.56 92.49 28.49 92.28 28.92 91.73C29.62 90.79 30.15 89.74 30.51 88.63C32.14 83.82 32.77 78.8 33.56 73.83C34 70.03 35.17 66.35 37 63C38.42 60.52 40.32 58.36 42.59 56.63C43.42 56 43.45 56 43.59 57.07C43.68 57.78 43.71 58.51 43.76 59.23C44.06 63.95 43.99 68.69 43.58 73.41C43.2 77.06 43.15 80.74 43.43 84.41C43.82 88.66 44.58 92.87 45.7 97L59 97C58.82 95.91 58.32 94.91 57.57 94.12C56.81 93.32 55.83 92.78 54.76 92.56C53.5 92.36 52.22 92.42 51 92.76C50.4 92.9 50.15 92.76 50.1 92.11C49.68 86.81 50.02 81.48 51.1 76.29C52.43 70.28 53.45 64.21 54.16 58.11C54.42 55.64 55.19 53.25 56.43 51.11C57.63 48.99 58.67 46.79 59.84 44.66C60.3 43.88 60.58 43.01 60.65 42.11C60.72 41.21 60.59 40.3 60.26 39.47C59.99 38.75 59.73 38.04 59.4 37.36C58.4 35.41 57.4 33.48 56.48 31.51C55.99 30.51 56.1 30.39 57.18 30.36C58.81 30.36 58.81 30.36 58.85 28.72C58.85 28.5 58.85 28.28 58.85 28.06C58.85 27.37 58.59 26.99 57.85 27.06C57.35 27.06 56.85 27.06 56.33 27.06C55.64 27.06 55.43 26.77 55.61 26.06C55.94 24.9 56.61 23.87 57.52 23.08C58.43 22.3 59.54 21.79 60.74 21.63C62.95 21.43 65.18 21.58 67.36 22.06C67.61 22.13 67.88 22.11 68.11 21.99C68.35 21.87 68.52 21.66 68.61 21.42C69.01 20.42 69.44 19.42 69.9 18.42C70 18.24 70.04 18.03 70.02 17.83C70.01 17.63 69.93 17.43 69.8 17.28C66.6 13.22 63.13 9.42 58.4 7C58.17 6.9 57.97 6.74 57.81 6.55C57.66 6.35 57.56 6.12 57.52 5.88C57.25 4.45 56.82 3.05 56.25 1.71C55.97 1 55.48 0.4 54.84 0L54.84 0Z" fill="#000000" fill-opacity="1.000000" fill-rule="nonzero"/>
</svg>
