<svg width="140.066040" height="194.000000" viewBox="0 0 140.066 194" fill="none" xmlns="http://www.w3.org/2000/svg" xmlns:xlink="http://www.w3.org/1999/xlink">
	<desc>
			Created with Pixso.
	</desc>
	<defs/>
	<path id="Vector" d="M109.68 0L108.92 0C107.63 0.72 106.61 1.83 106 3.18C104.87 5.34 104 7.63 103.42 10C103.29 10.71 102.93 11.36 102.39 11.84C101.86 12.33 101.18 12.62 100.46 12.68C98.25 13.05 96.16 13.93 94.35 15.24C92.54 16.55 91.05 18.26 90 20.24C88.55 22.8 87.31 25.47 86.3 28.24C83.46 35.59 81.28 43.2 78.6 50.62C77.33 54 77.28 54 73.48 54C68.93 54 69.26 53.3 69.19 58.3C69.19 59.88 69.68 60.68 71.36 60.6C71.87 60.6 72.66 60.34 72.86 61.02C73.06 61.7 72.37 62 71.98 62.4C69.6 64.8 66.6 66.49 63.31 67.28C59.52 68.3 55.64 69.1 51.93 70.33C42.44 73.51 33.66 77.96 26.82 85.48C22.82 90.15 19.61 95.44 17.34 101.16C10 118.44 6.44 136.64 3.67 155.02C2.38 163.64 1.46 172.3 0.76 181.02C0.4 185.3 0 189.64 0 194L66.66 194C66.77 193.12 66.61 192.22 66.19 191.44C65.55 189.84 64.51 188.44 63.17 187.36C61.83 186.29 60.23 185.57 58.54 185.3C57.14 184.98 56.98 184.56 57.84 183.46C59.24 181.58 60.31 179.49 61.02 177.26C64.28 167.64 65.54 157.6 67.12 147.66C68.01 140.06 70.34 132.71 74 126C76.84 121.05 80.64 116.72 85.18 113.26C86.84 112 86.9 112 87.18 114.14C87.38 115.56 87.42 117.02 87.52 118.46C88.12 127.9 87.99 137.39 87.16 146.82C86.4 154.13 86.3 161.49 86.86 168.82C87.65 177.32 89.17 185.75 91.4 194L118 194C117.65 191.83 116.65 189.82 115.14 188.24C113.62 186.65 111.66 185.56 109.52 185.12C107.01 184.72 104.45 184.85 102 185.52C100.8 185.8 100.3 185.52 100.2 184.22C99.37 173.63 100.04 162.98 102.2 152.58C104.86 140.57 106.91 128.43 108.32 116.22C108.84 111.28 110.39 106.51 112.88 102.22C115.26 97.98 117.34 93.58 119.68 89.31C120.6 87.77 121.16 86.02 121.31 84.22C121.46 82.42 121.18 80.61 120.52 78.93C119.98 77.51 119.46 76.08 118.8 74.72C116.8 70.81 114.8 66.96 112.96 63.02C111.98 61.02 112.2 60.78 114.38 60.72C117.64 60.72 117.64 60.72 117.7 57.43C117.7 57 117.7 56.56 117.7 56.12C117.7 54.74 117.18 53.98 115.7 54.12C114.7 54.12 113.7 54.12 112.66 54.12C111.28 54.12 110.88 53.54 111.22 52.12C111.89 49.81 113.22 47.74 115.04 46.17C116.86 44.6 119.09 43.59 121.48 43.26C125.91 42.87 130.37 43.16 134.72 44.12C135.22 44.27 135.76 44.23 136.23 43.99C136.7 43.75 137.05 43.33 137.22 42.84C138.02 40.84 138.89 38.84 139.8 36.84C140 36.48 140.09 36.07 140.05 35.66C140.02 35.26 139.86 34.87 139.6 34.56C133.2 26.43 126.26 18.86 116.8 14C116.34 13.8 115.94 13.49 115.63 13.1C115.32 12.71 115.12 12.25 115.04 11.76C114.5 8.9 113.65 6.11 112.5 3.43C111.95 2.01 110.96 0.8 109.68 0L109.68 0Z" fill="#000000" fill-opacity="1.000000" fill-rule="nonzero"/>
</svg>
