<svg width="134.062988" height="56.161011" viewBox="0 0 134.063 56.161" fill="none" xmlns="http://www.w3.org/2000/svg" xmlns:xlink="http://www.w3.org/1999/xlink">
	<desc>
			Created with Pixso.
	</desc>
	<defs/>
	<path id="Vector" d="M123.11 5.75C124.27 3.91 125.8 2.35 127.61 1.15C128.61 0.45 129.21 0.45 129.81 1.75C130.61 3.65 131.31 5.65 130.71 7.75C130.6 8.11 130.58 8.49 130.65 8.85C130.72 9.22 130.88 9.56 131.11 9.85C131.71 10.65 132.21 11.45 132.71 12.15C133.39 13.02 133.84 14.04 133.99 15.13C134.15 16.22 134.02 17.33 133.61 18.35C133.25 19.34 133.18 20.42 133.41 21.45C133.61 22.44 133.61 23.46 133.41 24.45C133.33 25.19 133.03 25.89 132.55 26.46C132.07 27.03 131.43 27.45 130.71 27.65C129.43 27.9 128.29 28.61 127.51 29.65C127.42 29.81 127.29 29.93 127.13 30.02C126.97 30.11 126.79 30.15 126.61 30.15C125.41 30.35 122.41 27.65 122.41 26.45L122.41 25.85C122.51 22.25 122.31 21.95 119.01 20.45C118.32 20.21 117.7 19.8 117.21 19.25C116.61 18.45 115.81 18.55 114.91 18.85C114.01 19.15 113.51 19.75 113.61 20.75C113.92 23.17 114.02 25.61 113.91 28.05C113.92 28.33 113.99 28.6 114.11 28.85C117.21 33.35 118.41 38.65 119.91 43.75C121.11 47.65 123.31 49.75 127.31 50.05C127.95 50.1 128.59 50.2 129.21 50.35C130.03 50.48 130.8 50.86 131.4 51.43C132.01 52 132.43 52.74 132.61 53.55C133.31 55.65 132.91 56.15 130.81 56.15L124.31 56.15C123.47 56.19 122.65 55.91 122.01 55.35C121 54.5 119.85 53.82 118.61 53.35C117.24 52.85 116.06 51.94 115.21 50.75C114.04 49.12 112.7 47.61 111.21 46.25C108.41 43.35 105.41 40.55 102.81 37.55C100.83 35.51 99.69 32.8 99.61 29.95C99.61 29.05 99.41 28.65 98.41 29.05C98.11 29.24 97.77 29.35 97.41 29.35C94.61 29.35 93.21 31.05 92.21 33.55C91.31 35.65 90.11 37.65 89.01 39.75C88.39 41.07 88.05 42.5 88.01 43.95C88.01 46.35 88.61 47.15 90.81 47.95C92.21 48.45 93.51 48.95 94.21 50.35C95.01 51.95 94.81 52.35 93.11 52.45L86.31 52.45C85.92 52.49 85.53 52.41 85.19 52.21C84.85 52.01 84.57 51.71 84.41 51.35L82.61 48.35C82.08 47.57 81.74 46.67 81.62 45.74C81.5 44.8 81.6 43.84 81.91 42.95C82.35 41.22 82.38 39.4 82.01 37.65C81.76 36.43 81.78 35.17 82.08 33.96C82.37 32.75 82.93 31.62 83.71 30.65C84.31 29.95 84.31 29.65 83.31 29.45C79.22 28.58 75.26 27.21 71.51 25.35C71.49 25.35 71.46 25.34 71.44 25.32C71.42 25.3 71.41 25.28 71.41 25.25C68.21 24.05 67.61 24.25 66.71 27.55C65.91 30.35 65.11 33.15 64.51 36.05C63.81 39.25 64.61 42.25 65.61 45.25C66.01 46.45 67.21 46.35 68.11 46.65C70.11 47.25 71.81 48.05 72.61 50.15C73.31 51.75 73.21 51.95 71.51 51.95C69.81 51.95 68.11 51.85 66.31 51.95C64.79 51.98 63.31 51.49 62.11 50.55C57.31 47.35 55.91 42.45 55.51 37.15C55.31 33.85 53.51 31.25 51.41 28.75C51.01 28.25 50.61 28.05 50.01 28.45C47.87 29.64 45.63 30.64 43.31 31.45C38.49 33.16 34.25 36.21 31.11 40.25C29.94 41.73 29.18 43.49 28.91 45.35C28.61 47.15 29.11 47.95 30.91 48.45C32.71 48.95 33.61 49.95 33.81 51.85C33.91 52.65 33.61 53.05 32.81 53.05L24.71 53.05C24.45 53.03 24.19 52.95 23.97 52.81C23.74 52.67 23.55 52.48 23.41 52.25C22.16 50.7 21.49 48.75 21.51 46.75C21.46 43.3 21.76 39.85 22.41 36.45C22.55 35.44 22.93 34.47 23.52 33.63C24.11 32.79 24.9 32.12 25.81 31.65C31.71 28.85 34.81 23.55 37.61 18.05C38.21 16.95 37.71 16.75 36.71 16.85C33.91 17.24 31.26 18.34 29.01 20.05C26.07 22.2 23.29 24.57 20.71 27.15C17.96 29.95 14.32 31.68 10.41 32.05C3.11 32.45 -0.29 28.35 0.01 21.75C0.08 19.5 0.93 17.34 2.41 15.65C2.93 14.98 3.63 14.48 4.43 14.22C5.24 13.95 6.1 13.93 6.91 14.15C8.41 14.55 8.81 15.35 8.21 16.85C7.91 17.45 7.51 17.95 7.21 18.55C6.78 19.16 6.44 19.84 6.21 20.55C5.11 23.55 6.61 25.65 9.71 25.95C13.01 26.25 15.71 24.85 18.21 22.85C21.23 20.44 23.91 17.65 26.21 14.55C27.93 12.29 30.1 10.4 32.57 9.01C35.05 7.62 37.79 6.75 40.61 6.45C42.91 6.15 44.91 5.15 47.11 4.55C51.23 3.3 55.51 2.69 59.81 2.75C61.81 2.83 63.79 2.46 65.61 1.65C70.51 -0.35 75.61 -0.35 80.71 0.65C84.71 1.45 88.71 2.45 92.61 3.45C94.93 3.88 97.32 3.82 99.61 3.25C104 2.14 108.49 1.47 113.01 1.25C115.98 1.11 118.93 1.69 121.61 2.95C123.61 3.85 123.61 3.85 123.11 5.75Z" fill="#000000" fill-opacity="1.000000" fill-rule="nonzero"/>
</svg>
