<svg width="25.982895" height="28.512207" viewBox="0 0 25.9829 28.5122" fill="none" xmlns="http://www.w3.org/2000/svg" xmlns:xlink="http://www.w3.org/1999/xlink">
    <defs/>
    <path id="Vector" d="M10.87 0C9.24 0 7.97 1.35 7.97 3.08C7.97 4.8 9.24 6.16 10.87 6.16C12.5 6.16 13.77 4.8 13.77 3.08C13.77 1.35 12.5 0 10.87 0ZM10.87 1.17C11.87 1.17 12.59 2.02 12.59 3.08C12.59 4.07 11.8 4.98 10.87 4.98C9.87 4.98 9.15 4.14 9.15 3.08C9.15 2.08 9.93 1.17 10.87 1.17ZM0 24.74C0 25.91 0.4 26.91 1.35 27.73C2.35 28.58 3.53 28.51 3.53 28.51L22.56 28.51C23.34 28.51 24.37 28.13 25.19 27.06C26.03 26.06 25.98 24.7 25.98 24.7L25.98 7.48C25.98 7.05 25.87 6.88 25.23 6.88C24.6 6.88 24.55 7.15 24.55 7.47L24.55 24.69C24.53 24.99 24.47 25.78 23.8 26.41C23.07 27.04 22.35 26.96 22.35 26.96C22.35 26.96 4.23 26.96 3.32 26.93C2.98 26.87 2.41 26.74 1.87 26.02C1.36 25.3 1.46 24.39 1.46 24.39L1.46 7.17C1.46 6.71 1.23 6.54 0.74 6.54C0.25 6.54 0 6.71 0 7.12L0 24.74ZM16.31 8.42C15.22 8.66 14.13 8.8 12.05 10.78C9.96 12.77 8.42 12.68 6.88 12.59C5.34 12.5 3.71 11.05 3.44 10.69C3.1 10.34 2.53 10.57 2.35 10.81C2.2 11.04 2.2 11.45 2.46 11.8C3.73 12.98 4.91 13.89 7.17 14.07C9.44 14.29 11.61 13.26 13.06 11.8C14.51 10.35 15.24 10.08 16.33 9.9C18.95 9.48 20.49 10.52 21.4 11.17C22.4 12.26 22.67 11.95 22.94 11.64C23.49 10.92 22.71 10.37 21.85 9.74C20.04 8.56 18.32 8.11 16.33 8.47L16.31 8.42ZM7.25 15.58C6.07 15.58 5.16 16.58 5.16 17.85C5.16 19.12 6.07 20.11 7.25 20.11C8.42 20.11 9.33 19.12 9.33 17.85C9.33 16.58 8.42 15.58 7.25 15.58ZM19.03 16.36C17.49 16.36 16.22 17.72 16.22 19.35C16.22 20.98 17.49 22.34 19.03 22.34C20.57 22.34 21.84 20.98 21.84 19.35C21.84 17.72 20.57 16.36 19.03 16.36ZM19.03 17.81C19.82 17.81 20.48 18.51 20.48 19.35C20.48 20.21 19.82 20.89 19.03 20.89C18.23 20.89 17.58 20.2 17.58 19.35C17.58 18.49 18.23 17.81 19.03 17.81Z" fill="#FFFFFF" fill-opacity="1.000000" fill-rule="nonzero"/>
</svg>
