<svg width="268.126343" height="112.322021" viewBox="0 0 268.126 112.322" fill="none" xmlns="http://www.w3.org/2000/svg" xmlns:xlink="http://www.w3.org/1999/xlink">
    <defs/>
    <path id="Vector" d="M246.23 11.51C248.54 7.83 251.61 4.7 255.23 2.31C257.23 0.91 258.43 0.91 259.63 3.51C261.23 7.31 262.63 11.31 261.43 15.51C261.21 16.22 261.17 16.98 261.31 17.71C261.45 18.44 261.77 19.13 262.23 19.71C263.43 21.31 264.43 22.91 265.43 24.31C266.79 26.04 267.68 28.09 267.99 30.27C268.31 32.44 268.04 34.67 267.23 36.71C266.5 38.69 266.36 40.85 266.83 42.91C267.23 44.89 267.23 46.93 266.83 48.91C266.67 50.39 266.07 51.79 265.11 52.93C264.15 54.07 262.87 54.9 261.43 55.31C258.87 55.8 256.59 57.22 255.03 59.31C254.84 59.62 254.58 59.87 254.26 60.04C253.95 60.22 253.59 60.31 253.23 60.31C250.83 60.71 244.83 55.31 244.83 52.91L244.83 51.71C245.03 44.51 244.63 43.91 238.03 40.91C236.65 40.42 235.41 39.6 234.43 38.51C233.23 36.91 231.63 37.11 229.83 37.71C228.03 38.31 227.03 39.51 227.23 41.51C227.84 46.35 228.04 51.23 227.83 56.11C227.85 56.67 227.98 57.21 228.23 57.71C234.43 66.71 236.83 77.31 239.83 87.51C242.23 95.31 246.63 99.51 254.63 100.11C255.91 100.21 257.18 100.41 258.43 100.71C260.07 100.97 261.6 101.72 262.81 102.87C264.03 104.01 264.87 105.48 265.23 107.11C266.63 111.31 265.83 112.31 261.63 112.31L248.63 112.31C246.95 112.39 245.3 111.82 244.03 110.71C242.01 109 239.71 107.65 237.23 106.71C234.49 105.7 232.12 103.89 230.43 101.51C228.09 98.24 225.41 95.22 222.43 92.51C216.83 86.71 210.83 81.11 205.63 75.11C201.67 71.02 199.39 65.6 199.23 59.91C199.23 58.11 198.83 57.31 196.83 58.11C196.23 58.49 195.54 58.7 194.83 58.71C189.23 58.71 186.43 62.11 184.43 67.11C182.63 71.31 180.23 75.31 178.03 79.51C176.78 82.14 176.1 85 176.03 87.91C176.03 92.71 177.23 94.31 181.63 95.91C184.43 96.91 187.03 97.91 188.43 100.71C190.03 103.91 189.63 104.71 186.23 104.91L172.63 104.91C171.85 104.99 171.06 104.82 170.38 104.42C169.7 104.03 169.16 103.43 168.83 102.71L165.23 96.71C164.17 95.14 163.49 93.35 163.25 91.48C163 89.6 163.2 87.69 163.83 85.91C164.7 82.44 164.77 78.81 164.03 75.31C163.53 72.87 163.57 70.35 164.16 67.93C164.75 65.51 165.86 63.25 167.43 61.31C168.63 59.91 168.63 59.31 166.63 58.91C158.45 57.17 150.53 54.42 143.03 50.71C142.98 50.71 142.93 50.69 142.89 50.65C142.85 50.61 142.83 50.56 142.83 50.51C136.43 48.11 135.23 48.51 133.43 55.11C131.83 60.71 130.23 66.31 129.03 72.11C127.63 78.51 129.23 84.51 131.23 90.51C132.03 92.91 134.43 92.71 136.23 93.31C140.23 94.51 143.63 96.11 145.23 100.31C146.63 103.51 146.43 103.91 143.03 103.91C139.63 103.91 136.23 103.71 132.63 103.91C129.59 103.96 126.63 102.98 124.23 101.11C114.63 94.71 111.83 84.91 111.03 74.31C110.63 67.71 107.03 62.51 102.83 57.51C102.03 56.51 101.23 56.11 100.03 56.91C95.74 59.28 91.26 61.28 86.63 62.91C76.98 66.32 68.51 72.43 62.23 80.51C59.89 83.46 58.37 86.98 57.83 90.71C57.23 94.31 58.23 95.91 61.83 96.91C65.43 97.91 67.23 99.91 67.63 103.71C67.83 105.31 67.23 106.11 65.63 106.11L49.43 106.11C48.9 106.07 48.39 105.91 47.94 105.63C47.48 105.35 47.1 104.97 46.83 104.51C44.32 101.4 42.97 97.51 43.03 93.51C42.93 86.6 43.53 79.7 44.83 72.91C45.1 70.88 45.86 68.94 47.04 67.27C48.23 65.59 49.8 64.24 51.63 63.31C63.43 57.71 69.63 47.11 75.23 36.11C76.43 33.91 75.43 33.51 73.43 33.71C67.83 34.49 62.53 36.69 58.03 40.11C52.14 44.41 46.59 49.15 41.43 54.31C35.93 59.9 28.64 63.37 20.83 64.11C6.23 64.91 -0.57 56.71 0.03 43.51C0.17 39.01 1.86 34.69 4.83 31.31C5.86 29.97 7.27 28.97 8.87 28.44C10.48 27.9 12.2 27.86 13.83 28.31C16.83 29.11 17.63 30.71 16.43 33.71C15.83 34.91 15.03 35.91 14.43 37.11C13.57 38.33 12.89 39.68 12.43 41.11C10.23 47.11 13.23 51.31 19.43 51.91C26.03 52.51 31.43 49.71 36.43 45.71C42.46 40.89 47.83 35.31 52.43 29.11C55.87 24.58 60.2 20.81 65.15 18.02C70.11 15.24 75.58 13.5 81.23 12.91C85.83 12.31 89.83 10.31 94.23 9.11C102.46 6.6 111.03 5.39 119.63 5.51C123.62 5.67 127.59 4.92 131.23 3.31C141.03 -0.69 151.23 -0.69 161.43 1.31C169.43 2.91 177.43 4.91 185.23 6.91C189.87 7.77 194.65 7.64 199.23 6.51C208.01 4.28 216.99 2.94 226.03 2.51C231.96 2.22 237.86 3.39 243.23 5.91C247.23 7.71 247.23 7.71 246.23 11.51Z" fill="#000000" fill-opacity="1.000000" fill-rule="nonzero"/>
</svg>
