<svg width="36.016975" height="50.000000" viewBox="0 0 36.017 50" fill="none" xmlns="http://www.w3.org/2000/svg" xmlns:xlink="http://www.w3.org/1999/xlink">
    <defs/>
    <path id="Vector" d="M28.2 0L28 0C27.67 0.18 27.41 0.47 27.25 0.81C26.96 1.37 26.74 1.96 26.59 2.57C26.56 2.76 26.46 2.92 26.33 3.05C26.19 3.17 26.01 3.25 25.83 3.26C25.26 3.36 24.72 3.59 24.26 3.93C23.79 4.26 23.41 4.7 23.14 5.21C22.77 5.87 22.45 6.56 22.19 7.27C21.46 9.17 20.9 11.13 20.21 13.04C19.88 13.91 19.87 13.91 18.89 13.91C17.72 13.91 17.8 13.73 17.79 15.02C17.79 15.43 17.91 15.63 18.34 15.61C18.48 15.61 18.68 15.55 18.73 15.72C18.78 15.9 18.61 15.97 18.5 16.08C17.89 16.7 17.12 17.13 16.28 17.34C15.3 17.6 14.3 17.8 13.35 18.12C10.91 18.94 8.65 20.09 6.89 22.03C5.86 23.23 5.04 24.6 4.45 26.07C2.57 30.52 1.65 35.21 0.94 39.95C0.61 42.17 0.37 44.4 0.19 46.65C0.1 47.75 0 48.87 0 50L17.14 50C17.16 49.77 17.12 49.54 17.02 49.34C16.85 48.92 16.59 48.56 16.24 48.29C15.9 48.01 15.48 47.82 15.05 47.75C14.69 47.67 14.65 47.56 14.87 47.28C15.23 46.8 15.51 46.26 15.69 45.68C16.52 43.2 16.85 40.61 17.25 38.05C17.48 36.09 18.08 34.2 19.02 32.47C19.76 31.2 20.73 30.08 21.9 29.19C22.33 28.86 22.34 28.86 22.41 29.41C22.46 29.78 22.47 30.15 22.5 30.53C22.65 32.96 22.62 35.4 22.41 37.84C22.21 39.72 22.19 41.62 22.33 43.51C22.53 45.7 22.93 47.87 23.5 50L30.34 50C30.25 49.44 29.99 48.92 29.6 48.51C29.21 48.1 28.71 47.82 28.16 47.71C27.51 47.6 26.85 47.64 26.22 47.81C25.92 47.88 25.79 47.81 25.76 47.47C25.55 44.75 25.72 42 26.28 39.32C26.96 36.23 27.49 33.1 27.85 29.95C27.98 28.68 28.38 27.45 29.02 26.34C29.63 25.25 30.17 24.11 30.77 23.02C31.01 22.62 31.15 22.17 31.19 21.7C31.23 21.24 31.16 20.77 30.99 20.34C30.85 19.97 30.71 19.6 30.54 19.25C30.03 18.25 29.52 17.25 29.04 16.24C28.79 15.72 28.85 15.66 29.41 15.64C30.25 15.64 30.25 15.64 30.26 14.8C30.26 14.69 30.26 14.57 30.26 14.46C30.26 14.1 30.13 13.91 29.75 13.94C29.49 13.94 29.23 13.94 28.96 13.94C28.61 13.94 28.51 13.79 28.59 13.43C28.77 12.83 29.11 12.3 29.58 11.9C30.05 11.49 30.62 11.23 31.23 11.14C32.37 11.05 33.52 11.12 34.64 11.37C34.77 11.41 34.91 11.4 35.03 11.33C35.15 11.27 35.24 11.16 35.28 11.04C35.49 10.52 35.71 10.01 35.94 9.49C36 9.4 36.02 9.29 36.01 9.19C36 9.08 35.96 8.98 35.89 8.9C34.25 6.81 32.46 4.86 30.03 3.6C29.91 3.55 29.81 3.47 29.73 3.37C29.65 3.27 29.6 3.15 29.58 3.03C29.44 2.29 29.22 1.57 28.92 0.88C28.78 0.51 28.53 0.2 28.2 0L28.2 0Z" fill="#000000" fill-opacity="1.000000" fill-rule="nonzero"/>
</svg>
