<svg width="67.031570" height="28.080505" viewBox="0 0 67.0316 28.0805" fill="none" xmlns="http://www.w3.org/2000/svg" xmlns:xlink="http://www.w3.org/1999/xlink">
    <defs/>
    <path id="Vector" d="M61.55 2.87C62.13 1.95 62.9 1.17 63.8 0.57C64.3 0.22 64.6 0.22 64.9 0.87C65.3 1.82 65.65 2.82 65.35 3.87C65.3 4.05 65.29 4.24 65.32 4.42C65.36 4.61 65.44 4.78 65.55 4.92C65.85 5.32 66.1 5.72 66.35 6.07C66.69 6.51 66.92 7.02 66.99 7.56C67.07 8.11 67.01 8.66 66.8 9.17C66.62 9.67 66.59 10.21 66.7 10.72C66.8 11.22 66.8 11.73 66.7 12.22C66.66 12.59 66.51 12.94 66.27 13.23C66.03 13.51 65.71 13.72 65.35 13.82C64.71 13.95 64.14 14.3 63.75 14.82C63.71 14.9 63.64 14.96 63.56 15.01C63.48 15.05 63.39 15.07 63.3 15.07C62.7 15.17 61.2 13.82 61.2 13.22L61.2 12.92C61.25 11.12 61.15 10.97 59.5 10.22C59.16 10.1 58.85 9.9 58.6 9.62C58.3 9.22 57.9 9.27 57.45 9.42C57 9.57 56.75 9.87 56.8 10.37C56.95 11.58 57.01 12.8 56.95 14.02C56.96 14.16 56.99 14.3 57.05 14.42C58.6 16.67 59.2 19.32 59.95 21.87C60.55 23.82 61.65 24.87 63.65 25.02C63.97 25.05 64.29 25.1 64.6 25.17C65.01 25.24 65.4 25.43 65.7 25.71C66 26 66.21 26.37 66.3 26.77C66.65 27.82 66.45 28.07 65.4 28.07L62.15 28.07C61.73 28.09 61.32 27.95 61 27.67C60.5 27.25 59.92 26.91 59.3 26.67C58.62 26.42 58.03 25.97 57.6 25.37C57.02 24.56 56.35 23.8 55.6 23.12C54.2 21.67 52.7 20.27 51.4 18.77C50.41 17.75 49.84 16.4 49.8 14.97C49.8 14.52 49.7 14.32 49.2 14.52C49.05 14.62 48.88 14.67 48.7 14.67C47.3 14.67 46.6 15.52 46.1 16.77C45.65 17.82 45.05 18.82 44.5 19.87C44.19 20.53 44.02 21.25 44 21.97C44 23.17 44.3 23.57 45.4 23.97C46.1 24.22 46.75 24.47 47.1 25.17C47.5 25.97 47.4 26.17 46.55 26.22L43.15 26.22C42.96 26.24 42.76 26.2 42.59 26.1C42.42 26 42.28 25.85 42.2 25.67L41.3 24.17C41.04 23.78 40.87 23.33 40.81 22.87C40.75 22.4 40.8 21.92 40.95 21.47C41.17 20.61 41.19 19.7 41 18.82C40.88 18.21 40.89 17.58 41.04 16.98C41.18 16.37 41.46 15.81 41.85 15.32C42.15 14.97 42.15 14.82 41.65 14.72C39.61 14.29 37.63 13.6 35.75 12.67C35.74 12.67 35.73 12.67 35.72 12.66C35.71 12.65 35.7 12.64 35.7 12.62C34.1 12.02 33.8 12.12 33.35 13.77C32.95 15.17 32.55 16.57 32.25 18.02C31.9 19.62 32.3 21.12 32.8 22.62C33 23.22 33.6 23.17 34.05 23.32C35.05 23.62 35.9 24.02 36.3 25.07C36.65 25.87 36.6 25.97 35.75 25.97C34.9 25.97 34.05 25.92 33.15 25.97C32.39 25.99 31.65 25.74 31.05 25.27C28.65 23.67 27.95 21.22 27.75 18.57C27.65 16.92 26.75 15.62 25.7 14.37C25.5 14.12 25.3 14.02 25 14.22C23.93 14.82 22.81 15.32 21.65 15.72C19.24 16.58 17.12 18.1 15.55 20.12C14.97 20.86 14.59 21.74 14.45 22.67C14.3 23.57 14.55 23.97 15.45 24.22C16.35 24.47 16.8 24.97 16.9 25.92C16.95 26.32 16.8 26.52 16.4 26.52L12.35 26.52C12.22 26.51 12.09 26.47 11.98 26.4C11.87 26.33 11.77 26.24 11.7 26.12C11.08 25.35 10.74 24.37 10.75 23.37C10.73 21.65 10.88 19.92 11.2 18.22C11.27 17.72 11.46 17.23 11.76 16.81C12.05 16.39 12.45 16.06 12.9 15.82C15.85 14.42 17.4 11.77 18.8 9.02C19.1 8.47 18.85 8.37 18.35 8.42C16.95 8.62 15.63 9.17 14.5 10.02C13.03 11.1 11.64 12.28 10.35 13.57C8.98 14.97 7.16 15.84 5.2 16.02C1.55 16.22 -0.15 14.17 0 10.87C0.04 9.75 0.46 8.67 1.2 7.82C1.46 7.49 1.81 7.24 2.21 7.11C2.62 6.97 3.05 6.96 3.45 7.07C4.2 7.27 4.4 7.67 4.1 8.42C3.95 8.72 3.75 8.97 3.6 9.27C3.39 9.58 3.22 9.92 3.1 10.27C2.55 11.77 3.3 12.82 4.85 12.97C6.5 13.12 7.85 12.42 9.1 11.42C10.61 10.22 11.95 8.82 13.1 7.27C13.96 6.14 15.05 5.2 16.28 4.5C17.52 3.81 18.89 3.37 20.3 3.22C21.45 3.07 22.45 2.57 23.55 2.27C25.61 1.65 27.75 1.34 29.9 1.37C30.9 1.41 31.89 1.23 32.8 0.82C35.25 -0.18 37.8 -0.18 40.35 0.32C42.35 0.72 44.35 1.22 46.3 1.72C47.46 1.94 48.66 1.91 49.8 1.62C52 1.07 54.24 0.73 56.5 0.62C57.99 0.55 59.46 0.84 60.8 1.47C61.8 1.92 61.8 1.92 61.55 2.87Z" fill="#000000" fill-opacity="1.000000" fill-rule="nonzero"/>
</svg>
