<svg width="25" height="30" fill="none" xmlns="http://www.w3.org/2000/svg"><path fill="none" d="M0 0h25v30H0z"/><path d="M18.61.07c.38-.15.81-.07 1.09.22.91.91 2.1 2.88 3.06 5.92.97 3.07 1.74 7.29 1.74 12.79 0 .55-.45 1-1 1H20v9c0 .55-.45 1-1 1-.56 0-1-.45-1-1V1c0-.41.24-.77.61-.93zM20 18h2.49c-.09-4.82-.79-8.52-1.64-11.19-.27-.88-.57-1.64-.85-2.3V18zM1.5 0c.55 0 1 .44 1 1v5.5c0 .55.19 1.31.7 1.91.35.43.91.82 1.8.99V1c0-.56.44-1 1-1 .55 0 1 .44 1 1v8.4c.88-.17 1.44-.56 1.79-.99.51-.6.71-1.36.71-1.91V1c0-.56.44-1 1-1 .55 0 1 .44 1 1v5.5c0 .94-.31 2.18-1.18 3.2-.74.88-1.83 1.53-3.32 1.73V29c0 .55-.45 1-1 1-.56 0-1-.45-1-1V11.43c-1.5-.2-2.59-.85-3.33-1.73C.8 8.68.5 7.44.5 6.5V1c0-.56.44-1 1-1z" fill="#FFF" fill-rule="evenodd"/></svg>