<svg width="67.032" height="28.081" fill="none" xmlns="http://www.w3.org/2000/svg"><path d="M61.55 2.87A7.71 7.71 0 0163.8.57c.5-.35.8-.35 1.1.3.4.95.75 1.95.45 3-.05.18-.06.37-.03.55.04.19.12.36.23.5.3.4.55.8.8 1.15.34.44.57.95.64 1.49.08.55.02 1.1-.19 1.61-.18.5-.21 1.04-.1 1.55.1.5.1 1.01 0 1.5-.04.37-.19.72-.43 1.01-.24.28-.56.49-.92.59-.64.13-1.21.48-1.6 1-.04.08-.11.14-.19.19-.08.04-.17.06-.26.06-.6.1-2.1-1.25-2.1-1.85v-.3c.05-1.8-.05-1.95-1.7-2.7-.34-.12-.65-.32-.9-.6-.3-.4-.7-.35-1.15-.2-.45.15-.7.45-.65.95.15 1.21.21 2.43.15 3.65.01.14.04.28.1.4 1.55 2.25 2.15 4.9 2.9 7.45.6 1.95 1.7 3 3.7 3.15.32.03.64.08.95.15.41.07.8.26 1.1.54.3.29.51.66.6 1.06.35 1.05.15 1.3-.9 1.3h-3.25c-.42.02-.83-.12-1.15-.4-.5-.42-1.08-.76-1.7-1-.68-.25-1.27-.7-1.7-1.3-.58-.81-1.25-1.57-2-2.25-1.4-1.45-2.9-2.85-4.2-4.35a5.67 5.67 0 01-1.6-3.8c0-.45-.1-.65-.6-.45a.89.89 0 01-.5.15c-1.4 0-2.1.85-2.6 2.1-.45 1.05-1.05 2.05-1.6 3.1-.31.66-.48 1.38-.5 2.1 0 1.2.3 1.6 1.4 2 .7.25 1.35.5 1.7 1.2.4.8.3 1-.55 1.05h-3.4a.922.922 0 01-.56-.12.955.955 0 01-.39-.43l-.9-1.5c-.26-.39-.43-.84-.49-1.3-.06-.47-.01-.95.14-1.4.22-.86.24-1.77.05-2.65a4.23 4.23 0 01.04-1.84c.14-.61.42-1.17.81-1.66.3-.35.3-.5-.2-.6-2.04-.43-4.02-1.12-5.9-2.05-.01 0-.02 0-.03-.01-.01-.01-.02-.02-.02-.04-1.6-.6-1.9-.5-2.35 1.15-.4 1.4-.8 2.8-1.1 4.25-.35 1.6.05 3.1.55 4.6.2.6.8.55 1.25.7 1 .3 1.85.7 2.25 1.75.35.8.3.9-.55.9-.85 0-1.7-.05-2.6 0-.76.02-1.5-.23-2.1-.7-2.4-1.6-3.1-4.05-3.3-6.7-.1-1.65-1-2.95-2.05-4.2-.2-.25-.4-.35-.7-.15-1.07.6-2.19 1.1-3.35 1.5-2.41.86-4.53 2.38-6.1 4.4-.58.74-.96 1.62-1.1 2.55-.15.9.1 1.3 1 1.55s1.35.75 1.45 1.7c.05.4-.1.6-.5.6h-4.05a.833.833 0 01-.65-.4c-.62-.77-.96-1.75-.95-2.75-.02-1.72.13-3.45.45-5.15a3.2 3.2 0 011.7-2.4c2.95-1.4 4.5-4.05 5.9-6.8.3-.55.05-.65-.45-.6-1.4.2-2.72.75-3.85 1.6a35.996 35.996 0 00-4.15 3.55 8.254 8.254 0 01-5.15 2.45c-3.65.2-5.35-1.85-5.2-5.15.04-1.12.46-2.2 1.2-3.05.26-.33.61-.58 1.01-.71.41-.14.84-.15 1.24-.04.75.2.95.6.65 1.35-.15.3-.35.55-.5.85-.21.31-.38.65-.5 1-.55 1.5.2 2.55 1.75 2.7 1.65.15 3-.55 4.25-1.55 1.51-1.2 2.85-2.6 4-4.15.86-1.13 1.95-2.07 3.18-2.77 1.24-.69 2.61-1.13 4.02-1.28 1.15-.15 2.15-.65 3.25-.95 2.06-.62 4.2-.93 6.35-.9 1 .04 1.99-.14 2.9-.55 2.45-1 5-1 7.55-.5 2 .4 4 .9 5.95 1.4 1.16.22 2.36.19 3.5-.1 2.2-.55 4.44-.89 6.7-1 1.49-.07 2.96.22 4.3.85 1 .45 1 .45.75 1.4z" fill="#000"/></svg>