<svg width="70.033" height="97" fill="none" xmlns="http://www.w3.org/2000/svg"><path d="M54.84 0h-.38C53.81.36 53.3.91 53 1.59c-.57 1.08-1 2.22-1.29 3.41-.07.35-.25.68-.52.92-.26.24-.6.39-.96.42a7.15 7.15 0 00-3.06 1.28 7.26 7.26 0 00-2.17 2.5c-.73 1.28-1.35 2.61-1.85 4-1.42 3.67-2.51 7.48-3.85 11.19C38.66 27 38.64 27 36.74 27c-2.27 0-2.11-.35-2.15 2.15 0 .79.25 1.19 1.09 1.15.25 0 .65-.13.75.21.1.34-.25.49-.44.69a9.143 9.143 0 01-4.33 2.44c-1.9.51-3.85.91-5.69 1.52-4.75 1.59-9.14 3.82-12.56 7.58-2 2.33-3.61 4.98-4.74 7.84C5 59.22 3.21 68.32 1.83 77.51c-.65 4.31-1.11 8.64-1.45 13C.19 92.65 0 94.82 0 97h33.33c.05-.45-.03-.89-.24-1.28-.32-.8-.84-1.5-1.51-2.04s-1.47-.9-2.31-1.03c-.71-.16-.78-.37-.35-.92.7-.94 1.23-1.99 1.59-3.1 1.63-4.81 2.26-9.83 3.05-14.8C34 70.03 35.17 66.35 37 63c1.42-2.48 3.32-4.64 5.59-6.37.83-.63.86-.63 1 .44.09.71.12 1.44.17 2.16.3 4.72.23 9.46-.18 14.18-.38 3.65-.43 7.33-.15 11 .39 4.25 1.15 8.46 2.27 12.59H59a5.473 5.473 0 00-1.43-2.88 5.36 5.36 0 00-2.81-1.56c-1.26-.2-2.54-.14-3.76.2-.6.14-.85 0-.9-.65-.42-5.3-.08-10.63 1-15.82 1.33-6.01 2.35-12.08 3.06-18.18.26-2.47 1.03-4.86 2.27-7 1.2-2.12 2.24-4.32 3.41-6.45a5.925 5.925 0 00.42-5.19c-.27-.72-.53-1.43-.86-2.11-1-1.95-2-3.88-2.92-5.85-.49-1-.38-1.12.7-1.15 1.63 0 1.63 0 1.67-1.64v-.66c0-.69-.26-1.07-1-1h-1.52c-.69 0-.9-.29-.72-1a6.2 6.2 0 015.13-4.43c2.21-.2 4.44-.05 6.62.43.25.07.52.05.75-.07.24-.12.41-.33.5-.57.4-1 .83-2 1.29-3 .1-.18.14-.39.12-.59-.01-.2-.09-.4-.22-.55C66.6 13.22 63.13 9.42 58.4 7c-.23-.1-.43-.26-.59-.45-.15-.2-.25-.43-.29-.67-.27-1.43-.7-2.83-1.27-4.17C55.97 1 55.48.4 54.84 0z" fill="#000"/></svg>