<svg width="268.126" height="112.322" fill="none" xmlns="http://www.w3.org/2000/svg"><path d="M246.23 11.51c2.31-3.68 5.38-6.81 9-9.2 2-1.4 3.2-1.4 4.4 1.2 1.6 3.8 3 7.8 1.8 12-.22.71-.26 1.47-.12 2.2.14.73.46 1.42.92 2 1.2 1.6 2.2 3.2 3.2 4.6 1.36 1.73 2.25 3.78 2.56 5.96.32 2.17.05 4.4-.76 6.44-.73 1.98-.87 4.14-.4 6.2.4 1.98.4 4.02 0 6a7.495 7.495 0 01-5.4 6.4c-2.56.49-4.84 1.91-6.4 4a2 2 0 01-.77.73c-.31.18-.67.27-1.03.27-2.4.4-8.4-5-8.4-7.4v-1.2c.2-7.2-.2-7.8-6.8-10.8a8.789 8.789 0 01-3.6-2.4c-1.2-1.6-2.8-1.4-4.6-.8-1.8.6-2.8 1.8-2.6 3.8.61 4.84.81 9.72.6 14.6.02.56.15 1.1.4 1.6 6.2 9 8.6 19.6 11.6 29.8 2.4 7.8 6.8 12 14.8 12.6 1.28.1 2.55.3 3.8.6 1.64.26 3.17 1.01 4.38 2.16a8.212 8.212 0 012.42 4.24c1.4 4.2.6 5.2-3.6 5.2h-13c-1.68.08-3.33-.49-4.6-1.6a23.3 23.3 0 00-6.8-4 14.475 14.475 0 01-6.8-5.2 56.996 56.996 0 00-8-9c-5.6-5.8-11.6-11.4-16.8-17.4a22.763 22.763 0 01-6.4-15.2c0-1.8-.4-2.6-2.4-1.8-.6.38-1.29.59-2 .6-5.6 0-8.4 3.4-10.4 8.4-1.8 4.2-4.2 8.2-6.4 12.4a20.72 20.72 0 00-2 8.4c0 4.8 1.2 6.4 5.6 8 2.8 1 5.4 2 6.8 4.8 1.6 3.2 1.2 4-2.2 4.2h-13.6c-.78.08-1.57-.09-2.25-.49-.68-.39-1.22-.99-1.55-1.71l-3.6-6a12.103 12.103 0 01-1.98-5.23c-.25-1.88-.05-3.79.58-5.57.87-3.47.94-7.1.2-10.6a16.863 16.863 0 013.4-14c1.2-1.4 1.2-2-.8-2.4-8.18-1.74-16.1-4.49-23.6-8.2-.05 0-.1-.02-.14-.06a.197.197 0 01-.06-.14c-6.4-2.4-7.6-2-9.4 4.6-1.6 5.6-3.2 11.2-4.4 17-1.4 6.4.2 12.4 2.2 18.4.8 2.4 3.2 2.2 5 2.8 4 1.2 7.4 2.8 9 7 1.4 3.2 1.2 3.6-2.2 3.6-3.4 0-6.8-.2-10.4 0-3.04.05-6-.93-8.4-2.8-9.6-6.4-12.4-16.2-13.2-26.8-.4-6.6-4-11.8-8.2-16.8-.8-1-1.6-1.4-2.8-.6a88.389 88.389 0 01-13.4 6 53.469 53.469 0 00-24.4 17.6 21.336 21.336 0 00-4.4 10.2c-.6 3.6.4 5.2 4 6.2s5.4 3 5.8 6.8c.2 1.6-.4 2.4-2 2.4h-16.2c-.53-.04-1.04-.2-1.49-.48-.46-.28-.84-.66-1.11-1.12-2.51-3.11-3.86-7-3.8-11-.1-6.91.5-13.81 1.8-20.6.27-2.03 1.03-3.97 2.21-5.64a12.61 12.61 0 014.59-3.96c11.8-5.6 18-16.2 23.6-27.2 1.2-2.2.2-2.6-1.8-2.4-5.6.78-10.9 2.98-15.4 6.4-5.89 4.3-11.44 9.04-16.6 14.2a33.298 33.298 0 01-20.6 9.8c-14.6.8-21.4-7.4-20.8-20.6.14-4.5 1.83-8.82 4.8-12.2a8.45 8.45 0 014.04-2.87c1.61-.54 3.33-.58 4.96-.13 3 .8 3.8 2.4 2.6 5.4-.6 1.2-1.4 2.2-2 3.4-.86 1.22-1.54 2.57-2 4-2.2 6 .8 10.2 7 10.8 6.6.6 12-2.2 17-6.2 6.03-4.82 11.4-10.4 16-16.6 3.44-4.53 7.77-8.3 12.72-11.09a41.758 41.758 0 0116.08-5.11c4.6-.6 8.6-2.6 13-3.8 8.23-2.51 16.8-3.72 25.4-3.6 3.99.16 7.96-.59 11.6-2.2 9.8-4 20-4 30.2-2 8 1.6 16 3.6 23.8 5.6 4.64.86 9.42.73 14-.4 8.78-2.23 17.76-3.57 26.8-4 5.93-.29 11.83.88 17.2 3.4 4 1.8 4 1.8 3 5.6z" fill="#000"/></svg>