<svg width="25.983" height="28.512" fill="none" xmlns="http://www.w3.org/2000/svg"><path d="M10.87 0c-1.63 0-2.9 1.35-2.9 3.08 0 1.72 1.27 3.08 2.9 3.08s2.9-1.36 2.9-3.08c0-1.73-1.27-3.08-2.9-3.08zm0 1.17c1 0 1.72.85 1.72 1.91 0 .99-.79 1.9-1.72 1.9-1 0-1.72-.84-1.72-1.9 0-1 .78-1.91 1.72-1.91zM0 24.74c0 1.17.4 2.17 1.35 2.99 1 .85 2.18.78 2.18.78h19.03c.78 0 1.81-.38 2.63-1.45.84-1 .79-2.36.79-2.36V7.48c0-.43-.11-.6-.75-.6-.63 0-.68.27-.68.59v17.22c-.02.3-.08 1.09-.75 1.72-.73.63-1.45.55-1.45.55s-18.12 0-19.03-.03c-.34-.06-.91-.19-1.45-.91-.51-.72-.41-1.63-.41-1.63V7.17c0-.46-.23-.63-.72-.63S0 6.71 0 7.12v17.62zM16.31 8.42c-1.09.24-2.18.38-4.26 2.36-2.09 1.99-3.63 1.9-5.17 1.81-1.54-.09-3.17-1.54-3.44-1.9-.34-.35-.91-.12-1.09.12-.15.23-.15.64.11.99 1.27 1.18 2.45 2.09 4.71 2.27 2.27.22 4.44-.81 5.89-2.27 1.45-1.45 2.18-1.72 3.27-1.9 2.62-.42 4.16.62 5.07 1.27 1 1.09 1.27.78 1.54.47.55-.72-.23-1.27-1.09-1.9-1.81-1.18-3.53-1.63-5.52-1.27l-.02-.05zm-9.06 7.16c-1.18 0-2.09 1-2.09 2.27s.91 2.26 2.09 2.26c1.17 0 2.08-.99 2.08-2.26 0-1.27-.91-2.27-2.08-2.27zm11.78.78c-1.54 0-2.81 1.36-2.81 2.99 0 1.63 1.27 2.99 2.81 2.99s2.81-1.36 2.81-2.99c0-1.63-1.27-2.99-2.81-2.99zm0 1.45c.79 0 1.45.7 1.45 1.54 0 .86-.66 1.54-1.45 1.54-.8 0-1.45-.69-1.45-1.54 0-.86.65-1.54 1.45-1.54z" fill="#FFF"/></svg>