<svg width="134.063" height="56.161" fill="none" xmlns="http://www.w3.org/2000/svg"><path d="M123.11 5.75c1.16-1.84 2.69-3.4 4.5-4.6 1-.7 1.6-.7 2.2.6.8 1.9 1.5 3.9.9 6a2.284 2.284 0 00.4 2.1c.6.8 1.1 1.6 1.6 2.3.68.87 1.13 1.89 1.28 2.98.16 1.09.03 2.2-.38 3.22a5.55 5.55 0 00-.2 3.1c.2.99.2 2.01 0 3a3.747 3.747 0 01-2.7 3.2c-1.28.25-2.42.96-3.2 2-.09.16-.22.28-.38.37-.16.09-.34.13-.52.13-1.2.2-4.2-2.5-4.2-3.7v-.6c.1-3.6-.1-3.9-3.4-5.4-.69-.24-1.31-.65-1.8-1.2-.6-.8-1.4-.7-2.3-.4-.9.3-1.4.9-1.3 1.9.31 2.42.41 4.86.3 7.3.01.28.08.55.2.8 3.1 4.5 4.3 9.8 5.8 14.9 1.2 3.9 3.4 6 7.4 6.3.64.05 1.28.15 1.9.3.82.13 1.59.51 2.19 1.08.61.57 1.03 1.31 1.21 2.12.7 2.1.3 2.6-1.8 2.6h-6.5c-.84.04-1.66-.24-2.3-.8-1.01-.85-2.16-1.53-3.4-2a7.23 7.23 0 01-3.4-2.6 28.948 28.948 0 00-4-4.5c-2.8-2.9-5.8-5.7-8.4-8.7a11.362 11.362 0 01-3.2-7.6c0-.9-.2-1.3-1.2-.9-.3.19-.64.3-1 .3-2.8 0-4.2 1.7-5.2 4.2-.9 2.1-2.1 4.1-3.2 6.2-.62 1.32-.96 2.75-1 4.2 0 2.4.6 3.2 2.8 4 1.4.5 2.7 1 3.4 2.4.8 1.6.6 2-1.1 2.1h-6.8c-.39.04-.78-.04-1.12-.24-.34-.2-.62-.5-.78-.86l-1.8-3c-.53-.78-.87-1.68-.99-2.61-.12-.94-.02-1.9.29-2.79.44-1.73.47-3.55.1-5.3-.25-1.22-.23-2.48.07-3.69.29-1.21.85-2.34 1.63-3.31.6-.7.6-1-.4-1.2a49.89 49.89 0 01-11.8-4.1c-.02 0-.05-.01-.07-.03a.09.09 0 01-.03-.07c-3.2-1.2-3.8-1-4.7 2.3-.8 2.8-1.6 5.6-2.2 8.5-.7 3.2.1 6.2 1.1 9.2.4 1.2 1.6 1.1 2.5 1.4 2 .6 3.7 1.4 4.5 3.5.7 1.6.6 1.8-1.1 1.8-1.7 0-3.4-.1-5.2 0-1.52.03-3-.46-4.2-1.4-4.8-3.2-6.2-8.1-6.6-13.4-.2-3.3-2-5.9-4.1-8.4-.4-.5-.8-.7-1.4-.3a42.81 42.81 0 01-6.7 3 26.797 26.797 0 00-12.2 8.8 10.71 10.71 0 00-2.2 5.1c-.3 1.8.2 2.6 2 3.1s2.7 1.5 2.9 3.4c.1.8-.2 1.2-1 1.2h-8.1c-.26-.02-.52-.1-.74-.24-.23-.14-.42-.33-.56-.56a8.63 8.63 0 01-1.9-5.5c-.05-3.45.25-6.9.9-10.3.14-1.01.52-1.98 1.11-2.82.59-.84 1.38-1.51 2.29-1.98 5.9-2.8 9-8.1 11.8-13.6.6-1.1.1-1.3-.9-1.2-2.8.39-5.45 1.49-7.7 3.2a71.02 71.02 0 00-8.3 7.1 16.61 16.61 0 01-10.3 4.9c-7.3.4-10.7-3.7-10.4-10.3.07-2.25.92-4.41 2.4-6.1.52-.67 1.22-1.17 2.02-1.43a4.28 4.28 0 012.48-.07c1.5.4 1.9 1.2 1.3 2.7-.3.6-.7 1.1-1 1.7-.43.61-.77 1.29-1 2-1.1 3 .4 5.1 3.5 5.4 3.3.3 6-1.1 8.5-3.1 3.02-2.41 5.7-5.2 8-8.3a20.86 20.86 0 016.36-5.54c2.48-1.39 5.22-2.26 8.04-2.56 2.3-.3 4.3-1.3 6.5-1.9 4.12-1.25 8.4-1.86 12.7-1.8 2 .08 3.98-.29 5.8-1.1 4.9-2 10-2 15.1-1 4 .8 8 1.8 11.9 2.8 2.32.43 4.71.37 7-.2 4.39-1.11 8.88-1.78 13.4-2 2.97-.14 5.92.44 8.6 1.7 2 .9 2 .9 1.5 2.8z" fill="#000"/></svg>