<svg width="36.017" height="50" fill="none" xmlns="http://www.w3.org/2000/svg"><path d="M28.2 0H28c-.33.18-.59.47-.75.81-.29.56-.51 1.15-.66 1.76-.03.19-.13.35-.26.48a.86.86 0 01-.5.21c-.57.1-1.11.33-1.57.67-.47.33-.85.77-1.12 1.28-.37.66-.69 1.35-.95 2.06-.73 1.9-1.29 3.86-1.98 5.77-.33.87-.34.87-1.32.87-1.17 0-1.09-.18-1.1 1.11 0 .41.12.61.55.59.14 0 .34-.06.39.11.05.18-.12.25-.23.36-.61.62-1.38 1.05-2.22 1.26-.98.26-1.98.46-2.93.78-2.44.82-4.7 1.97-6.46 3.91a14.48 14.48 0 00-2.44 4.04c-1.88 4.45-2.8 9.14-3.51 13.88a99.44 99.44 0 00-.75 6.7C.1 47.75 0 48.87 0 50h17.14c.02-.23-.02-.46-.12-.66-.17-.42-.43-.78-.78-1.05-.34-.28-.76-.47-1.19-.54-.36-.08-.4-.19-.18-.47.36-.48.64-1.02.82-1.6.83-2.48 1.16-5.07 1.56-7.63.23-1.96.83-3.85 1.77-5.58.74-1.27 1.71-2.39 2.88-3.28.43-.33.44-.33.51.22.05.37.06.74.09 1.12.15 2.43.12 4.87-.09 7.31-.2 1.88-.22 3.78-.08 5.67.2 2.19.6 4.36 1.17 6.49h6.84c-.09-.56-.35-1.08-.74-1.49-.39-.41-.89-.69-1.44-.8-.65-.11-1.31-.07-1.94.1-.3.07-.43 0-.46-.34-.21-2.72-.04-5.47.52-8.15a92.49 92.49 0 001.57-9.37c.13-1.27.53-2.5 1.17-3.61.61-1.09 1.15-2.23 1.75-3.32a3.06 3.06 0 00.22-2.68c-.14-.37-.28-.74-.45-1.09-.51-1-1.02-2-1.5-3.01-.25-.52-.19-.58.37-.6.84 0 .84 0 .85-.84v-.34c0-.36-.13-.55-.51-.52h-.79c-.35 0-.45-.15-.37-.51.18-.6.52-1.13.99-1.53.47-.41 1.04-.67 1.65-.76 1.14-.09 2.29-.02 3.41.23.13.04.27.03.39-.04.12-.06.21-.17.25-.29.21-.52.43-1.03.66-1.55.06-.09.08-.2.07-.3a.503.503 0 00-.12-.29c-1.64-2.09-3.43-4.04-5.86-5.3a.756.756 0 01-.45-.57c-.14-.74-.36-1.46-.66-2.15A1.74 1.74 0 0028.2 0z" fill="#000"/></svg>