<svg width="152" height="152" fill="none" xmlns="http://www.w3.org/2000/svg"><path fill="none" d="M0 0h152v152H0z"/><path fill="#EEE" d="M0 0h152v152H0z"/><path d="M36.3 95.83a18.54 18.54 0 01-3.26-11.8V66.96c-.3-4.21.83-8.4 3.21-11.92 2.15-2.71 5.84-4.06 11.04-4.04 5.21.01 8.73 1.2 10.58 3.57 2.25 2.93 3.34 6.55 3.09 10.21v4h-9.62v-4.34c-.02-1.14-.12-2.28-.31-3.41-.11-.82-.5-1.58-1.09-2.16-.36-.31-.79-.54-1.25-.69-.46-.14-.94-.2-1.42-.16-.69-.1-1.4.01-2.02.32-.62.3-1.14.79-1.47 1.39-.61 1.6-.88 3.3-.79 5.01v21.65c-.1 1.72.21 3.43.91 5.01.33.56.83 1.02 1.43 1.32.6.29 1.27.41 1.94.34.65.09 1.32-.03 1.9-.33.59-.3 1.06-.78 1.35-1.36.56-1.6.81-3.29.72-4.98v-4.55h9.63v3.94c.28 3.71-.73 7.4-2.86 10.48-2.05 2.51-5.58 3.74-10.6 3.74s-8.95-1.37-11.11-4.17zM73.46 52H84.6L94 99h-9.26l-1.67-10.39h-7.8l-1.88 10.32H64L73.46 52zm8.58 30.7l-2.96-18.89-2.94 18.89h5.9zM100.55 59.08H93V52h25v7.08h-7.47V99h-10l.02-39.92z" fill="#111"/></svg>