<svg width="70" height="59" fill="none" xmlns="http://www.w3.org/2000/svg"><path d="M59.74 23.8c-1.72-4.1-4.49-7.67-8.04-10.37a25.423 25.423 0 00-12.16-5.02c-4.43-.59-8.93-.02-13.06 1.67a25.554 25.554 0 00-10.49 7.91 25.332 25.332 0 00-5.13 12.06c-.63 4.4-.08 8.88 1.59 13a25.35 25.35 0 007.89 10.48c3.5 2.75 7.67 4.54 12.09 5.19-.58-2.08-1.17-4.37-1.69-6.8 1.51.98 3.1 1.82 4.75 2.53 0 0 .12 2.14.28 4.54 1.79.03 3.57-.13 5.32-.47-.04-.25-.04-.51 0-.75.29-1.86 1.09-5.2 1.25-7.36 1.15-1.07 2.13-2.31 2.89-3.68l-.06.44c-.55 4.23-1.69 8.74-2.39 9.99-.23.41-.51.8-.83 1.14a25.58 25.58 0 009.92-4.73c2.92-2.27 5.31-5.15 7-8.43 1.69-3.28 2.65-6.89 2.8-10.57.15-3.69-.51-7.36-1.93-10.77zm-1.47 3.76c-.44.43-1.35.71-1.49-.57-.15-1.29-.19-2.2-.19-2.2s-1.93-3.4-2.65-3.44c-.72-.04-5.81 3.44-7.16 4.96-1.17 1.28-1.4 1.19-1.4 3.44 0 1.7.22 8.11.1 13.01l-8.13 2.15c-2.56.73-5.16 1.3-7.78 1.71l-1-5.79h-.14l-2.56-13.06s-3.81-1.43-5.2-1.82c-.66-.28-1.38-.37-2.09-.26-.71.11-1.37.42-1.9.89-.55.47-.99 1.06-1.28 1.72-.3.66-.45 1.38-.45 2.1.21.46.37.94.48 1.44.05.47-1.2.42-2 .42-.79 0-.91-1.43-.29-3.1.5-1.29 1.1-2.53 1.82-3.71.54-1.06 1.24-2.02 2.07-2.87 0 0 .14-.34 1.24-.24 1.11.1 7.27.43 7.27.43l.05-2.25c6.69-.92 13.44-1.36 20.19-1.33V21c2.56-1.16 5.31-1.83 8.12-1.98.15 0 .3.03.44.1.13.06.24.16.33.29.34.42 2.4 2.97 2.64 3.34.67.95 1.28 1.95 1.83 2.98-.19.65-.48 1.26-.87 1.82v.01z" fill="#FDC305"/><path d="M56.33 21.49c.47.6.87 1.12.99 1.28.67.95 1.28 1.95 1.83 2.98-.19.63-.48 1.22-.86 1.76-.44.43-1.35.72-1.49-.57-.15-1.29-.21-2.15-.21-2.15s-1.93-3.4-2.65-3.44c-.72-.04-5.81 3.44-7.16 4.96-1.17 1.28-1.4 1.19-1.4 3.44 0 1.49.17 6.6.13 11.14 1.81.2 4.46.7 5.26 1.87 0 0-.29-7.12 7.79-3.4 0 0 .28-9.71 11.44-7.22-3.8-4.42-8.45-8.05-13.67-10.65zM45.82 19.19c.04-5.5-.43-10.99-1.4-16.4 0 0-.15-1.29-.86-.24-.6 1.26-1 2.6-1.2 3.97-4.27-.27-8.55-.16-12.79.34-.82-2.73-2.22-3.97-2.89-3.64-.66.33-.74 3.25-.74 3.25l-.33 14.05c6.69-.92 13.45-1.37 20.21-1.33z" fill="#F06351"/><path d="M45.24 46.73c.13-1.06.2-2.47.24-4.02l-8.13 2.15a64.81 64.81 0 01-7.78 1.76l1.1 4.96c0 .1 0 .21.07.32 1.51.98 3.1 1.82 4.75 2.53a42.5 42.5 0 006.87-4.09v.06c1.14-1.07 2.12-2.3 2.88-3.67z" fill="#E55645"/><path d="M31.92 16.08c-.05-.1 1 .68 1.41.92.41.23.61.41.61.58 0 .17-.26.34-.62.34s-.92-.12-1-.26c-.08-.14.6 0 .94 0h.29c-.62-.45-1.16-.98-1.63-1.58zM39.4 16.19s-.99 1.27-1.08 1.33c-.09.06-.17.34.19.29.41-.06.82-.15 1.21-.28.11-.06.07-.2-.12-.18-.19.02-.67.05-.99.11l.84-1.26s.03-.12-.05-.01zM36.27 22.25c.46-.2.85-.55 1.09-.99.28-.65 0-.9-.44-.99-.6-.11-1.23.01-1.75.34-.38.36-.33.72 0 .99.34.26.71.48 1.1.65z" fill="#000"/><path d="M35.91 23.5c-.11.23-.27.43-.46.6-.28.23-.63.36-.99.38-.55.05-1.1-.11-1.54-.44-.2-.12-.38-.27-.53-.45a.99.99 0 00-.36-.24s.75 4.07 2.57 4.73c1.81.65 2.15-.76 2.2-1.13.06-1.13-.22-2.25-.82-3.22 0-.3-.02-.1-.07-.23z" fill="#F06351"/><path d="M34.22 24.63a3.27 3.27 0 01-1.32-.47c-.4-.24-.75-.56-1.03-.94a.211.211 0 01-.04-.1c0-.04.02-.07.04-.1.02-.02.03-.03.05-.03.01-.01.03-.01.05-.01.02 0 .04 0 .06.01.01 0 .03.01.04.03.25.34.56.63.92.86.36.22.77.37 1.19.44.33-.03.65-.13.93-.3.29-.18.53-.41.7-.69l.14-.19.1.22s.38.75 1 .79c.62.04 1.06-.42 1.63-1.28.02-.03.05-.05.09-.06.04-.01.07 0 .11.02.03.02.05.05.06.09 0 .04 0 .08-.02.11-.67.97-1.3 1.44-1.89 1.4-.23-.03-.45-.11-.64-.24s-.36-.29-.48-.49c-.19.27-.45.5-.74.66-.29.16-.62.25-.95.27z" fill="#000"/><path d="M39.91 34.27a3.73 3.73 0 01-3.74 3.72c-2.06 0-3.74-1.67-3.74-3.72 0-2.06 1.68-3.72 3.74-3.72 2.07 0 3.74 1.66 3.74 3.72z" fill="#FDC305" fill-rule="evenodd"/><path d="M41.13 31.24l-3.12 1.3 1.15-5.58-7.49 9.68 3.13-1.3-1.15 5.59 7.48-9.69zm-7.37 3.8l4.15-5.37-.81 3.97 2-.81-4.19 5.37.81-3.96-1.96.8z" fill="#111"/><path d="M33.48 32.47c0 .61-.5 1.11-1.12 1.11-.62 0-1.12-.5-1.12-1.11 0-.61.5-1.11 1.12-1.11.62 0 1.12.5 1.12 1.11zM39.65 36.83c0 .43-.35.78-.78.78a.785.785 0 11.78-.78zM40.17 35.11c0 .19-.15.35-.35.35-.19 0-.35-.16-.35-.35 0-.19.16-.35.35-.35.2 0 .35.16.35.35z" fill="#111" fill-rule="evenodd"/><path d="M45.77 20.98c-1.8 1.62-3.5 3.34-5.08 5.17a30.939 30.939 0 01-5.3 4.86c-.22-.52-1.62-1.51-1.62-1.51s-3.14-2.13-5.19-3.8c-1.11-.92-2.16-1.92-3.13-2.98l-2-.11c2.88 4.18 7.1 7.27 11.97 8.77.86-.14 3.28-1.86 5.08-3.25 2.14-1.81 4.14-3.77 5.99-5.87.5-.58.88-1.26 1.14-1.98-1.14.38-1.86.7-1.86.7z" fill="#F06351"/><path d="M65.07 3.47l-8.44 9.36-1.22-1.97L63.54 0l1.53 3.47zM62.5 17.12l5.53-4.08-.78-3.71-5.39 4.77.64 3.02zM59.78 48.97l6.11 3.15 3.01-2.32-6.68-2.73-2.44 1.9zM1.94 5.92L5 2.58l9.27 8.93-1.22 2.26L1.94 5.92zM7.36 16.14l-4.69-3.1-2.4 3.84 5.14 2.38 1.95-3.12zM13.87 52.12l-4.54 3.32 2.8 3.56 4.01-3.99-2.27-2.89z" fill="#FDC305"/><path d="M25.87 27.77s-3.81-1.43-5.2-1.82c-.66-.28-1.38-.37-2.09-.26-.71.11-1.37.42-1.9.89-.55.47-.99 1.06-1.28 1.72-.3.66-.45 1.38-.45 2.1.21.46.37.94.48 1.44.05.47-1.2.42-2 .42-.79 0-.91-1.43-.29-3.1.5-1.29 1.1-2.53 1.82-3.71C9.52 28.27 0 34.77 0 34.77c2.72-.16 5.46-.08 8.17.24 5.23.53 4.98 4.63 4.98 4.63 1.85-.5 3.72-.87 5.62-1.1 2.12-.14 2.27 2.1 2.27 2.1l.53 3.83c.8-.86 1.68-1.64 2.64-2.34 1.23-.98 2.8-1.44 4.37-1.29l-2.71-13.07z" fill="#F06351"/></svg>