<svg width="101" height="18" fill="none" xmlns="http://www.w3.org/2000/svg"><path d="M1.21 16.47a6.873 6.873 0 01-1.2-4.34V5.86C-.1 4.31.32 2.78 1.2 1.48 1.99.49 3.35-.01 5.27 0c1.92 0 3.22.44 3.9 1.31a5.47 5.47 0 011.14 3.75v1.47H6.76v-1.6c0-.42-.04-.84-.11-1.25-.04-.3-.18-.58-.4-.79-.14-.12-.29-.2-.46-.25-.17-.06-.35-.08-.53-.06a1.261 1.261 0 00-1.29.62c-.22.59-.32 1.22-.29 1.84V13c-.04.63.08 1.26.34 1.84.12.2.31.37.53.48.22.11.47.15.71.13.24.03.49-.01.7-.12.22-.11.39-.29.5-.5.21-.59.3-1.21.27-1.83v-1.67h3.55v1.44a5.94 5.94 0 01-1.06 3.85C8.47 17.54 7.17 18 5.31 18c-1.85 0-3.3-.51-4.1-1.53zM15.15.24h4.07l3.43 17.55h-3.38l-.61-3.88h-2.85l-.69 3.85h-3.43L15.15.24zm3.13 11.46L17.2 4.65l-1.07 7.05h2.15zM25.28 2.88H22.5V.24h9.19v2.64h-2.74v14.88h-3.68l.01-14.88z" fill="#111"/><path d="M38.91.24h6.97v1.82h-4.46v5.79h3.62v1.73h-3.62v6.43h4.5v1.75h-7.01V.24zM47.95.24h1.71l5.15 11.64V.24h2.09v17.55h-1.6L50.15 5.82v11.94h-2.12L47.95.24zM59.67.24h6.97v1.82h-4.46v5.79h3.65v1.73h-3.62v6.43h4.48v1.75h-7.02V.24zM68.7.24h3.62c1.43-.11 2.85.27 4.01 1.09.86.73 1.28 1.92 1.28 3.56 0 2.23-.74 3.59-2.22 4.09l2.57 8.78h-2.44l-2.36-8.22h-1.94v8.22H68.7V.24zm3.43 7.52c.83.08 1.66-.15 2.32-.64a2.918 2.918 0 00.7-2.26 4.52 4.52 0 00-.25-1.67c-.07-.2-.18-.38-.33-.54-.15-.15-.33-.28-.52-.37-.56-.22-1.16-.32-1.76-.29h-1.11v5.8l.95-.03zM80.99 16.47A7.58 7.58 0 0179.9 12V6.15c-.03-1.13.11-2.26.43-3.35.24-.81.77-1.52 1.49-2.01a5.16 5.16 0 012.88-.7c.65-.06 1.31.02 1.93.23.62.21 1.19.56 1.65 1 .83 1.13 1.22 2.5 1.1 3.87v.65h-2.36V5.3c.02-.65-.03-1.3-.15-1.94-.08-.41-.31-.77-.65-1.03-.45-.25-.96-.37-1.48-.34a2.22 2.22 0 00-1.55.47c-.36.33-.59.76-.66 1.24-.11.69-.16 1.38-.15 2.08v6.51c-.06.99.11 1.98.51 2.89.23.28.53.5.86.66.34.15.71.22 1.08.22.37-.01.73-.1 1.06-.27.33-.16.61-.4.83-.69.42-.96.6-2 .53-3.05v-1.23h-2.28V9.09h4.54v8.67h-1.55l-.25-2.01c-.2.67-.62 1.25-1.2 1.66-.58.4-1.29.6-2 .57-.67.06-1.34-.05-1.96-.32-.62-.26-1.15-.67-1.56-1.19zM94.73 11.58L90.84.24h2.33l2.76 8.45L98.64.24H101l-3.86 11.34v6.18h-2.41v-6.18z" fill="#444"/></svg>