<svg width="60" height="50" fill="none" xmlns="http://www.w3.org/2000/svg"><path d="M51.2 19.05a22.307 22.307 0 00-6.88-9.13c-3.04-2.38-6.64-3.9-10.43-4.42-3.79-.51-7.65-.01-11.2 1.47a21.926 21.926 0 00-8.99 6.97 22.649 22.649 0 00-4.4 10.6 22.78 22.78 0 001.37 11.44c1.42 3.62 3.75 6.8 6.76 9.22 3.01 2.41 6.58 3.99 10.37 4.56-.5-1.83-1-3.84-1.45-5.98 1.3.86 2.66 1.6 4.07 2.22 0 0 .1 1.89.24 3.99 1.53.03 3.06-.11 4.56-.41a1.83 1.83 0 010-.66c.25-1.63.93-4.57 1.07-6.47.99-.94 1.82-2.03 2.48-3.23l-.05.38c-.47 3.72-1.46 7.69-2.06 8.79-.19.36-.43.7-.7 1 3.09-.74 5.99-2.16 8.5-4.16 2.5-2 4.55-4.53 6-7.41 1.45-2.89 2.27-6.06 2.4-9.31.12-3.24-.44-6.47-1.66-9.46zm-1.25 3.3c-.38.38-1.16.63-1.29-.5-.12-1.14-.16-1.93-.16-1.93s-1.65-2.99-2.27-3.03c-.61-.03-4.98 3.03-6.14 4.36-1 1.13-1.19 1.05-1.19 3.03 0 1.49.19 7.13.08 11.44l-6.97 1.89c-2.19.64-4.42 1.14-6.67 1.5l-.85-5.08h-.12l-2.2-11.49s-3.26-1.26-4.46-1.6c-.56-.25-1.18-.33-1.79-.24-.6.1-1.17.37-1.63.79-.47.42-.84.93-1.1 1.51-.25.58-.38 1.21-.38 1.85.18.4.32.83.41 1.26.05.42-1.02.38-1.71.38-.68 0-.78-1.26-.24-2.73.42-1.14.94-2.23 1.55-3.27.47-.92 1.06-1.77 1.77-2.52 0 0 .12-.29 1.07-.21.95.09 6.23.38 6.23.38l.04-1.98c5.74-.81 11.52-1.2 17.31-1.17v1.6c2.19-1.03 4.55-1.62 6.96-1.75.13 0 .26.03.37.09.12.06.22.14.29.25.29.38 2.06 2.62 2.27 2.94.57.84 1.09 1.71 1.56 2.62-.16.57-.41 1.11-.74 1.6v.01z" fill="#FDC305"/><path d="M48.28 17.01c.4.53.75.99.85 1.13.58.84 1.1 1.71 1.57 2.62-.16.55-.41 1.07-.74 1.55-.37.37-1.15.63-1.28-.51-.13-1.13-.18-1.88-.18-1.88s-1.65-2.99-2.26-3.03c-.62-.03-4.99 3.03-6.15 4.36-1 1.13-1.19 1.05-1.19 3.03 0 1.31.14 5.8.11 9.8 1.55.17 3.82.61 4.51 1.64 0 0-.25-6.27 6.67-2.99 0 0 .24-8.54 9.81-6.35a37.688 37.688 0 00-11.72-9.37zM39.27 14.99c.04-4.84-.36-9.66-1.19-14.42 0 0-.13-1.14-.75-.21-.51 1.1-.85 2.28-1.02 3.49-3.66-.24-7.33-.14-10.97.29-.7-2.39-1.9-3.49-2.47-3.2-.57.29-.64 2.86-.64 2.86l-.28 12.36c5.74-.81 11.53-1.2 17.32-1.17z" fill="#F06351"/><path d="M38.78 39.22c.11-.94.17-2.18.2-3.55l-6.97 1.9c-2.19.65-4.41 1.17-6.67 1.54l.95 4.36c0 .1 0 .2.06.29 1.3.86 2.66 1.6 4.07 2.23 2.07-1.01 4.04-2.22 5.89-3.61v.06c.98-.94 1.81-2.03 2.47-3.22z" fill="#E55645"/><path d="M27.36 12.26c-.04-.09.86.59 1.21.8.35.21.52.37.52.52 0 .14-.22.29-.53.29-.31 0-.79-.1-.86-.22-.07-.13.52 0 .81 0h.24c-.52-.4-.99-.86-1.39-1.39zM33.77 12.35s-.85 1.12-.93 1.17c-.07.06-.14.3.17.26.35-.06.7-.14 1.04-.25.09-.05.06-.17-.1-.16-.17.02-.59.05-.86.1l.73-1.11s.02-.1-.05-.01zM31.09 17.68c.4-.17.72-.48.93-.87.24-.57 0-.79-.37-.87-.52-.1-1.06.01-1.5.3-.33.32-.29.63 0 .87.29.23.6.42.94.57z" fill="#000"/><path d="M30.78 18.78c-.1.2-.23.38-.39.53-.25.2-.54.31-.86.33-.47.05-.94-.09-1.31-.38a1.77 1.77 0 01-.46-.4.932.932 0 00-.3-.22s.64 3.59 2.19 4.17c1.56.57 1.85-.67 1.89-1 .05-.99-.19-1.98-.7-2.83 0-.26-.02-.08-.06-.2z" fill="#F06351"/><path d="M29.33 19.78c-.4-.06-.79-.2-1.13-.42a2.79 2.79 0 01-.88-.83c-.02-.02-.03-.05-.03-.09 0-.03.01-.06.03-.08.01-.01.02-.02.04-.03.01-.01.03-.01.04-.01.02 0 .04 0 .05.01.01.01.03.02.04.03.21.3.48.56.79.75.31.2.65.33 1.01.39.29-.02.56-.11.81-.26.24-.16.45-.36.6-.61l.12-.17.08.19s.33.67.86.7c.53.04.9-.37 1.39-1.12.02-.03.05-.05.08-.06.03 0 .06 0 .09.02s.05.05.05.08c.01.03 0 .07-.01.1-.57.85-1.11 1.26-1.62 1.23-.2-.03-.38-.1-.55-.21-.17-.11-.31-.26-.41-.43-.17.24-.38.43-.63.58-.26.14-.54.22-.82.24z" fill="#000"/><path d="M34.21 28.25c0 1.81-1.43 3.27-3.21 3.27-1.77 0-3.2-1.46-3.2-3.27s1.43-3.27 3.2-3.27c1.78 0 3.21 1.46 3.21 3.27z" fill="#FDC305" fill-rule="evenodd"/><path d="M35.25 25.59l-2.67 1.14.98-4.91-6.41 8.52 2.67-1.15-.98 4.92 6.41-8.52zm-6.32 3.34l3.56-4.72-.69 3.49 1.71-.71-3.58 4.72.69-3.49-1.69.71z" fill="#111"/><path d="M28.7 26.67c0 .54-.43.98-.96.98s-.96-.44-.96-.98.43-.98.96-.98.96.44.96.98zM33.99 30.5c0 .38-.3.69-.68.69a.68.68 0 01-.67-.69c0-.38.3-.69.67-.69.38 0 .68.31.68.69zM34.43 28.99c0 .17-.13.31-.3.31a.31.31 0 01-.3-.31c0-.17.14-.3.3-.3.17 0 .3.13.3.3z" fill="#111" fill-rule="evenodd"/><path d="M39.23 16.57a50.4 50.4 0 00-4.35 4.54c-1.35 1.6-2.88 3.03-4.54 4.28-.19-.46-1.4-1.33-1.4-1.33s-2.68-1.87-4.44-3.35a26.61 26.61 0 01-2.69-2.62L20.1 18c2.47 3.68 6.09 6.4 10.26 7.71.74-.12 2.81-1.63 4.36-2.86 1.83-1.59 3.54-3.31 5.13-5.16.42-.51.75-1.1.97-1.74-.97.33-1.59.62-1.59.62zM22.17 22.54s-3.26-1.26-4.46-1.6c-.56-.25-1.18-.33-1.78-.24-.61.1-1.18.37-1.64.79-.46.42-.84.93-1.09 1.51-.26.58-.39 1.21-.39 1.85.19.4.32.83.41 1.26.05.42-1.02.38-1.71.38-.68 0-.78-1.26-.24-2.73.42-1.14.94-2.23 1.55-3.27C8.16 22.97 0 28.7 0 28.7c2.33-.15 4.68-.08 7 .2 4.49.47 4.27 4.08 4.27 4.08 1.58-.45 3.19-.77 4.82-.97 1.81-.12 1.94 1.85 1.94 1.85l.45 3.37c.69-.76 1.45-1.45 2.27-2.06 1.06-.86 2.4-1.27 3.75-1.14l-2.33-11.49z" fill="#F06351"/></svg>