<svg width="128" height="24" fill="none" xmlns="http://www.w3.org/2000/svg"><path d="M1.62 21.95a9.331 9.331 0 01-1.6-5.72V7.76c-.14-2.06.39-4.1 1.5-5.82C2.62.61 4.32 0 6.83 0c2.5 0 4.1.61 5.1 1.73a7.434 7.434 0 011.51 5.01v2.04H8.53V6.43c.04-.7-.06-1.39-.3-2.04-.13-.27-.33-.49-.58-.63-.25-.15-.54-.21-.82-.19-.71 0-1.21.2-1.41.71-.22.73-.32 1.49-.3 2.25v10.93c-.05.74.09 1.48.4 2.14.2.51.71.72 1.41.72s1.1-.21 1.3-.72c.23-.69.33-1.41.3-2.14v-2.45h4.91v2.04c.1 1.83-.43 3.64-1.51 5.11-1 1.22-2.7 1.84-5.1 1.84-2.41-.11-4.21-.72-5.21-2.05zM19.34.3h5.71l4.21 23.29h-4.61l-.8-4.91h-3.3l-.81 4.91h-4.7L19.34.3zm4.11 15.32l-1.2-9.09-1.2 9.09h2.4zM32.76 4.18h-3.4V.3h11.91v3.78h-3.4v19.51h-5.11V4.18zM50.39.3h8.81v2.45h-5.71v7.66h4.61v2.35h-4.61v8.58h5.71v2.35h-8.91V.3h.1zM61.8.3h2.21l6.5 15.42V.3h2.61v23.29h-2L64.51 7.65v15.94H61.8V.3zM76.12.3h8.81v2.45h-5.7v7.66h4.6v2.35h-4.6v8.58h5.7v2.35h-8.81V.3zM87.54.3h4.6a7.89 7.89 0 015.11 1.43c1.1.92 1.6 2.55 1.6 4.7 0 2.96-.9 4.8-2.8 5.41l3.2 11.64h-3.1l-3-10.92h-2.51v10.92h-3.2V.3h.1zm4.4 10.01c1.04.09 2.07-.2 2.91-.82.6-.51.9-1.53.9-3.06.03-.76-.07-1.52-.3-2.25-.23-.52-.61-.95-1.1-1.22-.69-.32-1.45-.46-2.21-.41h-1.4v7.66h1.2v.1zM102.86 21.85a10.48 10.48 0 01-1.4-5.92V8.17c-.03-1.48.14-2.96.5-4.4.33-1.07 1-2 1.9-2.65 1.12-.68 2.41-1 3.71-.92 2.1 0 3.6.51 4.5 1.63a7.933 7.933 0 011.41 5.11v.82h-3.01v-.72c.01-.85-.06-1.71-.2-2.55-.08-.53-.37-1.01-.8-1.33a2.99 2.99 0 00-1.9-.51c-.72-.05-1.43.17-2.01.61a2.414 2.414 0 00-.8 1.64c-.13.91-.2 1.83-.2 2.75v8.69c-.07 1.32.13 2.64.6 3.88.4.81 1.21 1.12 2.41 1.12.47.06.95-.02 1.38-.24.43-.22.78-.56 1.02-.99.53-1.29.77-2.68.7-4.08V14.4h-2.9v-2.35h5.81v11.54h-2.01l-.3-2.66c-.26.89-.81 1.67-1.55 2.2-.74.54-1.64.81-2.55.76-.83.05-1.66-.11-2.41-.46-.75-.36-1.4-.9-1.9-1.58zM119.98 15.42L115.08.4h3l3.51 11.24L124.99.4H128l-4.91 15.02v8.17h-3.01v-8.17h-.1z" fill="#111"/></svg>