<svg width="33" height="38" fill="none" xmlns="http://www.w3.org/2000/svg"><defs><clipPath id="a"><path fill="#fff" fill-opacity="0" d="M0 0h33v38H0z"/></clipPath></defs><path fill="none" d="M0 0h33v38H0z"/><g clip-path="url(#a)"><path d="M6.01 20.93v-2.28c6.62-.93 13.29-1.38 19.97-1.35 0 .61 0 1.23-.06 1.84 1.9-.86 3.9-1.48 5.95-1.84a16.829 16.829 0 00-6.77-8.28 16.297 16.297 0 00-10.31-2.4c-3.6.37-6.98 1.94-9.62 4.47A16.992 16.992 0 00.18 20.6l5.83.33zM26.97 24.48c-1.15 1.29-1.37 1.21-1.37 3.48v9.28c2.27-1.53 4.13-3.61 5.42-6.06 1.29-2.44 1.97-5.17 1.98-7.95-.02-1.05-.12-2.1-.32-3.13a32.68 32.68 0 00-5.71 4.38zM6.29 25.98s-3.75-1.45-5.14-1.85c-.38-.12-.76-.21-1.15-.28.1 2.92.95 5.75 2.46 8.23C3.97 34.56 6.08 36.6 8.59 38l-2.3-12.02z" fill="#FDC305"/><path d="M26.03 17.29c.04-5.58-.42-11.15-1.38-16.64 0 0-.14-1.3-.89-.24-.58 1.26-.98 2.6-1.18 3.98-4.22-.28-8.45-.16-12.65.34C9.15 2.02 7.77.75 7.11 1.01c-.67.25-.72 3.34-.72 3.34L6.07 18.6c6.61-.92 13.29-1.35 19.96-1.31z" fill="#F06351"/><path d="M12.29 14.14c0-.09.99.69 1.39.93.41.24.61.42.61.6 0 .17-.27.34-.63.34-.35 0-.9-.12-.99-.27h1.22c-.6-.46-1.14-1-1.6-1.6zM19.69 14.25l-1.08 1.35c0 .06-.16.35.18.3.41-.06.82-.16 1.21-.29.11 0 .07-.2-.11-.18-.18.02-.68.05-.99.11l.83-1.27s.07-.13-.04-.02zM16.58 20.4c.46-.2.84-.56 1.08-1.01.28-.65 0-.92-.43-1.01-.6-.11-1.21.02-1.73.35-.38.36-.33.72-.04 1.01.34.27.72.49 1.12.66z" fill="#000"/><path d="M16.19 21.67c-.11.23-.27.43-.46.6-.28.24-.63.37-.99.39-.52.04-1.04-.11-1.45-.44-.2-.12-.38-.27-.53-.44-.1-.11-.22-.2-.36-.26 0 0 .75 4.14 2.55 4.8 1.8.65 2.12-.76 2.18-1.15.06-1.14-.22-2.28-.81-3.26-.02-.31-.03-.11-.13-.24z" fill="#F06351"/><path d="M14.56 22.82c-.46-.07-.9-.23-1.3-.47-.39-.25-.74-.58-1-.97-.02-.01-.03-.02-.03-.04a.142.142 0 01-.02-.06c0-.02.01-.03.02-.05 0-.02.01-.03.03-.05.01-.01.02-.02.04-.03.02-.01.04-.01.06-.01.01 0 .03 0 .05.01.02.01.03.02.04.03.5.7 1.26 1.18 2.09 1.32.33-.03.65-.13.93-.31s.52-.42.69-.7l.14-.2.1.22s.36.76.99.8c.62.04 1.04-.41 1.59-1.29.01-.01.03-.02.05-.03.01-.01.03-.01.05-.01.02 0 .04 0 .05.01.02.01.04.02.05.03.03.02.05.05.06.09.01.04.01.08-.01.11-.64 1.01-1.26 1.46-1.86 1.42-.23-.04-.45-.12-.64-.26-.2-.13-.36-.31-.47-.51-.2.28-.45.51-.74.67-.3.16-.62.26-.96.28z" fill="#000"/><path d="M25.98 19.11a57.945 57.945 0 00-5.02 5.25c-1.55 1.84-3.31 3.5-5.24 4.94-.22-.54-1.6-1.53-1.6-1.53s-3.1-2.16-5.13-3.86c-1.1-.94-2.13-1.95-3.1-3.03l-1.98-.11c2.86 4.25 7.05 7.38 11.88 8.89.85-.14 3.24-1.88 5.02-3.29 2.1-1.84 4.07-3.83 5.89-5.96.49-.59.88-1.28 1.13-2.02-1.09.4-1.85.72-1.85.72z" fill="#F06351"/></g></svg>