<svg xmlns="http://www.w3.org/2000/svg" xmlns:xlink="http://www.w3.org/1999/xlink"><symbol id="html-academy"><g fill="none"><path d="M13.64.01L13.5 0 0 1.4v24.61L13.5 34 27 26.01V1.4L13.64.01zm11.59 25L13.5 31.95 1.76 25.01V14.92l11.69 6.92.02 1.25-8.02-4.74-.01 1.23 8.04 4.8.02 1.29-8.04-4.76-.01 1.23 8.05 4.81 8.12-4.84V16.9l3.62-2.15-.01 10.26zm0-11.56l-3.22 1.88-1.48.87-7.07-4.18-.01 1.22 6.04 3.57-.05.03-.13.08-.86.49-4.99-2.95-.01 1.23 3.94 2.33-.94.61-.02.01-2.97-1.74-.01 1.22 1.95 1.14-1.99 1.18-11.62-6.87 11.64-6.96 11.8 6.84zm0-1.23L13.44 5.31l-11.68 6.9V2.98L13.5 1.76l11.73 1.22v9.24z" fill="#666"/></g></symbol><symbol id="logo-cat"><g fill="none"><path d="M1.62 21.95a9.331 9.331 0 01-1.6-5.72V7.76c-.14-2.06.39-4.1 1.5-5.82C2.62.61 4.32 0 6.83 0c2.5 0 4.1.61 5.1 1.73a7.434 7.434 0 011.51 5.01v2.04H8.53V6.43c.04-.7-.06-1.39-.3-2.04-.13-.27-.33-.49-.58-.63-.25-.15-.54-.21-.82-.19-.71 0-1.21.2-1.41.71-.22.73-.32 1.49-.3 2.25v10.93c-.05.74.09 1.48.4 2.14.2.51.71.72 1.41.72s1.1-.21 1.3-.72c.23-.69.33-1.41.3-2.14v-2.45h4.91v2.04c.1 1.83-.43 3.64-1.51 5.11-1 1.22-2.7 1.84-5.1 1.84-2.41-.11-4.21-.72-5.21-2.05zM19.34.3h5.71l4.21 23.29h-4.61l-.8-4.91h-3.3l-.81 4.91h-4.7L19.34.3zm4.11 15.32l-1.2-9.09-1.2 9.09h2.4zM32.76 4.18h-3.4V.3h11.91v3.78h-3.4v19.51h-5.11V4.18zM50.39.3h8.81v2.45h-5.71v7.66h4.61v2.35h-4.61v8.58h5.71v2.35h-8.91V.3h.1zM61.8.3h2.21l6.5 15.42V.3h2.61v23.29h-2L64.51 7.65v15.94H61.8V.3zM76.12.3h8.81v2.45h-5.7v7.66h4.6v2.35h-4.6v8.58h5.7v2.35h-8.81V.3zM87.54.3h4.6a7.89 7.89 0 015.11 1.43c1.1.92 1.6 2.55 1.6 4.7 0 2.96-.9 4.8-2.8 5.41l3.2 11.64h-3.1l-3-10.92h-2.51v10.92h-3.2V.3h.1zm4.4 10.01c1.04.09 2.07-.2 2.91-.82.6-.51.9-1.53.9-3.06.03-.76-.07-1.52-.3-2.25-.23-.52-.61-.95-1.1-1.22-.69-.32-1.45-.46-2.21-.41h-1.4v7.66h1.2v.1zM102.86 21.85a10.48 10.48 0 01-1.4-5.92V8.17c-.03-1.48.14-2.96.5-4.4.33-1.07 1-2 1.9-2.65 1.12-.68 2.41-1 3.71-.92 2.1 0 3.6.51 4.5 1.63a7.933 7.933 0 011.41 5.11v.82h-3.01v-.72c.01-.85-.06-1.71-.2-2.55-.08-.53-.37-1.01-.8-1.33a2.99 2.99 0 00-1.9-.51c-.72-.05-1.43.17-2.01.61a2.414 2.414 0 00-.8 1.64c-.13.91-.2 1.83-.2 2.75v8.69c-.07 1.32.13 2.64.6 3.88.4.81 1.21 1.12 2.41 1.12.47.06.95-.02 1.38-.24.43-.22.78-.56 1.02-.99.53-1.29.77-2.68.7-4.08V14.4h-2.9v-2.35h5.81v11.54h-2.01l-.3-2.66c-.26.89-.81 1.67-1.55 2.2-.74.54-1.64.81-2.55.76-.83.05-1.66-.11-2.41-.46-.75-.36-1.4-.9-1.9-1.58zM119.98 15.42L115.08.4h3l3.51 11.24L124.99.4H128l-4.91 15.02v8.17h-3.01v-8.17h-.1z" fill="#111"/></g></symbol><symbol id="telegram"><g fill="none"><path d="M19.46.15c.17.15.26.38.22.61l-2.62 15.76c-.04.22-.19.4-.39.49-.21.09-.44.07-.63-.06L8.17 11.7a.635.635 0 01-.29-.44.63.63 0 01.14-.51l2.61-3.27-4.36 2.91c-.2.13-.45.15-.66.04L.36 7.8A.627.627 0 010 7.18c.01-.27.18-.49.43-.58L18.81.03c.22-.08.47-.03.65.12zM2.32 7.32l3.54 1.77 7.56-5.05c.27-.18.63-.13.85.11.22.24.23.6.03.85l-4.81 6.01 6.44 4.29L18.2 1.65 2.32 7.32z" fill="#666" fill-rule="evenodd"/></g></symbol><symbol id="vkontakte"><g fill="none"><path d="M0 2.33C0 1.48.51 1.02 1.54.95l3.97.03c.27 0 .44.12.53.37.41 1.26.87 2.35 1.38 3.26.5.91 1.16 1.97 1.98 3.16.07.15.19.22.35.22.12 0 .22-.06.29-.17l.08-.28.03-4.35c0-.3-.08-.5-.23-.6-.15-.11-.43-.18-.84-.23-.32-.05-.48-.24-.48-.55 0-.07.01-.12.03-.16C9 .57 10.07.02 11.82.02l1.5-.02c.67 0 1.23.15 1.68.47.44.32.66.82.66 1.51v5.71c.13.08.24.13.35.13.26 0 .49-.15.69-.46 1.95-2.58 3.01-4.31 3.17-5.18 0-.01.02-.06.05-.12.13-.25.33-.47.62-.66.28-.18.53-.31.74-.37a.47.47 0 01.24-.05h4.13l.27.02c.35 0 .63.16.82.48.08.1.12.21.15.33.03.11.05.23.05.35.01.12.02.18.02.2v.18c-.13.68-.44 1.42-.95 2.2-.5.78-1.15 1.62-1.93 2.52-.78.91-1.27 1.5-1.46 1.79-.16.2-.24.38-.24.55 0 .14.07.29.21.45l3.89 4.63c.21.27.32.56.32.88 0 .39-.16.71-.48.96-.32.25-.7.39-1.15.42l-.45.03h-4.05c-.02 0-.05 0-.11.01-.05.01-.09.02-.1.02-.39 0-.76-.16-1.1-.48-.12-.14-.95-1.13-2.5-2.97-.09-.12-.21-.23-.37-.33-.07.27-.17.66-.28 1.16-.12.5-.2.86-.26 1.08l-.08.43c-.17.59-.55.94-1.11 1.05l-.38.03h-2.61c-1.47 0-2.94-.64-4.41-1.91-1.46-1.28-2.78-2.92-3.95-4.94C2.23 8.1 1.14 5.75.13 3.06.04 2.85 0 2.6 0 2.33zm16.01 6.52c-.38 0-.71-.1-1.01-.29-.31-.19-.46-.46-.46-.79V1.98c0-.33-.09-.57-.26-.71-.18-.15-.49-.22-.94-.22l-1.52.05c-.76 0-1.34.13-1.73.38.78.35 1.18.92 1.18 1.71v4.42c-.04.42-.22.77-.54 1.05-.32.28-.67.41-1.06.41-.54 0-.94-.24-1.23-.73-1.38-1.97-2.41-3.85-3.09-5.63l-.24-.65-3.54-.03c-.23 0-.36.01-.39.04-.03.02-.04.1-.04.21 0 .15.02.31.05.48l.56 1.41c1.5 3.64 3.12 6.5 4.87 8.6 1.75 2.1 3.46 3.14 5.15 3.14h2.67c.1 0 .18-.03.24-.08.05-.06.09-.18.13-.34l.05-.26.51-2.21c.14-.3.26-.5.37-.6.2-.19.43-.28.69-.28.43 0 .87.24 1.31.73L20 15.59c.15.21.3.32.46.32h4.39c.54 0 .8-.12.8-.37 0-.09-.02-.17-.08-.25l-3.86-4.56c-.3-.35-.45-.73-.45-1.13 0-.4.14-.79.42-1.16.23-.33.68-.89 1.35-1.67.66-.78 1.25-1.51 1.74-2.19.5-.67.83-1.29.99-1.84l.08-.33a.323.323 0 01-.03-.16.92.92 0 00-.02-.19H21.6c-.26.1-.48.25-.64.45l-.16.48c-.44 1.15-1.6 2.94-3.49 5.35-.37.34-.81.51-1.3.51z" fill="#666"/></g></symbol><symbol id="youtube"><g fill="none"><path d="M15.85 8.79L10.61 5.3a.568.568 0 00-.33-.11.573.573 0 00-.34.08.64.64 0 00-.34.57v6.98a.64.64 0 00.34.58c.11.06.22.08.34.08a.65.65 0 00.33-.11l5.24-3.49c.09-.06.16-.14.21-.24.05-.09.08-.2.08-.31a.659.659 0 00-.29-.54zM10.9 11.6V7.06l3.41 2.27-3.41 2.27zm12.48-8.56c-.09-.37-.27-.71-.52-.99-.26-.29-.57-.51-.93-.65C18.21-.03 12.25 0 12 0c-.26 0-6.22-.03-9.94 1.4-.36.14-.67.36-.93.65-.25.28-.43.62-.52.99C.32 4.11 0 6.07 0 9.33c0 3.27.32 5.23.61 6.3.09.37.27.71.52.99.26.29.57.51.93.64 3.72 1.43 9.68 1.41 9.94 1.41h.07c.75 0 6.32-.04 9.86-1.41.36-.13.67-.35.93-.64.25-.28.43-.62.52-.99.29-1.07.62-3.03.62-6.3 0-3.26-.33-5.22-.62-6.29zM22.12 15.3a1.09 1.09 0 01-.66.74c-3.49 1.34-9.4 1.32-9.46 1.32-.07 0-5.98.02-9.47-1.32a1.09 1.09 0 01-.66-.74c-.26-1-.57-2.85-.57-5.97 0-3.12.31-4.96.57-5.96.04-.17.13-.32.24-.45.11-.13.26-.23.42-.3C6.02 1.28 11.93 1.3 12 1.3c.06 0 5.97-.02 9.46 1.32.16.07.31.17.42.3.11.13.2.28.24.45.26 1 .57 2.84.57 5.96s-.31 4.97-.57 5.97z" fill="#666"/></g></symbol></svg>