<svg width="27" height="34" class="link-htmlacademy__img" fill="none" xmlns="http://www.w3.org/2000/svg"><path d="M13.64.01L13.5 0 0 1.4v24.61L13.5 34 27 26.01V1.4L13.64.01zm11.59 25L13.5 31.95 1.76 25.01V14.92l11.69 6.92.02 1.25-8.02-4.74-.01 1.23 8.04 4.8.02 1.29-8.04-4.76-.01 1.23 8.05 4.81 8.12-4.84V16.9l3.62-2.15-.01 10.26zm0-11.56l-3.22 1.88-1.48.87-7.07-4.18-.01 1.22 6.04 3.57-.05.03-.13.08-.86.49-4.99-2.95-.01 1.23 3.94 2.33-.94.61-.02.01-2.97-1.74-.01 1.22 1.95 1.14-1.99 1.18-11.62-6.87 11.64-6.96 11.8 6.84zm0-1.23L13.44 5.31l-11.68 6.9V2.98L13.5 1.76l11.73 1.22v9.24z"/></svg>
