<svg width="70.000000" height="59.000000" viewBox="0 0 70 59" fill="none" xmlns="http://www.w3.org/2000/svg" xmlns:xlink="http://www.w3.org/1999/xlink">
    <defs/>
    <path d="M59.74 23.8C58.02 19.7 55.25 16.13 51.7 13.43C48.16 10.72 43.97 8.99 39.54 8.41C35.11 7.82 30.61 8.39 26.48 10.08C22.35 11.76 18.73 14.49 15.99 17.99C13.25 21.5 11.48 25.65 10.86 30.05C10.23 34.45 10.78 38.93 12.45 43.05C14.11 47.17 16.83 50.78 20.34 53.53C23.84 56.28 28.01 58.07 32.43 58.72C31.85 56.64 31.26 54.35 30.74 51.92C32.25 52.9 33.84 53.74 35.49 54.45C35.49 54.45 35.61 56.59 35.77 58.99C37.56 59.02 39.34 58.86 41.09 58.52C41.05 58.27 41.05 58.01 41.09 57.77C41.38 55.91 42.18 52.57 42.34 50.41C43.49 49.34 44.47 48.1 45.23 46.73L45.17 47.17C44.62 51.4 43.48 55.91 42.78 57.16C42.55 57.57 42.27 57.96 41.95 58.3C45.56 57.46 48.94 55.85 51.87 53.57C54.79 51.3 57.18 48.42 58.87 45.14C60.56 41.86 61.52 38.25 61.67 34.57C61.82 30.88 61.16 27.21 59.74 23.8ZM58.27 27.56C57.83 27.99 56.92 28.27 56.78 26.99C56.63 25.7 56.59 24.79 56.59 24.79C56.59 24.79 54.66 21.39 53.94 21.35C53.22 21.31 48.13 24.79 46.78 26.31C45.61 27.59 45.38 27.5 45.38 29.75C45.38 31.45 45.6 37.86 45.48 42.76L37.35 44.91C34.79 45.64 32.19 46.21 29.57 46.62L28.57 40.83L28.43 40.83L25.87 27.77C25.87 27.77 22.06 26.34 20.67 25.95C20.01 25.67 19.29 25.58 18.58 25.69C17.87 25.8 17.21 26.11 16.68 26.58C16.13 27.05 15.69 27.64 15.4 28.3C15.1 28.96 14.95 29.68 14.95 30.4C15.16 30.86 15.32 31.34 15.43 31.84C15.48 32.31 14.23 32.26 13.43 32.26C12.64 32.26 12.52 30.83 13.14 29.16C13.64 27.87 14.24 26.63 14.96 25.45C15.5 24.39 16.2 23.43 17.03 22.58C17.03 22.58 17.17 22.24 18.27 22.34C19.38 22.44 25.54 22.77 25.54 22.77L25.59 20.52C32.28 19.6 39.03 19.16 45.78 19.19C45.78 19.79 45.78 20.4 45.78 21C48.34 19.84 51.09 19.17 53.9 19.02C54.05 19.02 54.2 19.05 54.34 19.12C54.47 19.18 54.58 19.28 54.67 19.41C55.01 19.83 57.07 22.38 57.31 22.75C57.98 23.7 58.59 24.7 59.14 25.73C58.95 26.38 58.66 26.99 58.27 27.55L58.27 27.56Z" fill="#FDC305" fill-opacity="1.000000" fill-rule="nonzero"/>
    <path d="M56.33 21.49C56.8 22.09 57.2 22.61 57.32 22.77C57.99 23.72 58.6 24.72 59.15 25.75C58.96 26.38 58.67 26.97 58.29 27.51C57.85 27.94 56.94 28.23 56.8 26.94C56.65 25.65 56.59 24.79 56.59 24.79C56.59 24.79 54.66 21.39 53.94 21.35C53.22 21.31 48.13 24.79 46.78 26.31C45.61 27.59 45.38 27.5 45.38 29.75C45.38 31.24 45.55 36.35 45.51 40.89C47.32 41.09 49.97 41.59 50.77 42.76C50.77 42.76 50.48 35.64 58.56 39.36C58.56 39.36 58.84 29.65 70 32.14C66.2 27.72 61.55 24.09 56.33 21.49Z" fill="#F06351" fill-opacity="1.000000" fill-rule="nonzero"/>
    <path d="M45.82 19.19C45.86 13.69 45.39 8.2 44.42 2.79C44.42 2.79 44.27 1.5 43.56 2.55C42.96 3.81 42.56 5.15 42.36 6.52C38.09 6.25 33.81 6.36 29.57 6.86C28.75 4.13 27.35 2.89 26.68 3.22C26.02 3.55 25.94 6.47 25.94 6.47L25.61 20.52C32.3 19.6 39.06 19.15 45.82 19.19Z" fill="#F06351" fill-opacity="1.000000" fill-rule="nonzero"/>
    <path d="M45.24 46.73C45.37 45.67 45.44 44.26 45.48 42.71L37.35 44.86C34.79 45.61 32.2 46.19 29.57 46.62L30.67 51.58C30.67 51.68 30.67 51.79 30.74 51.9C32.25 52.88 33.84 53.72 35.49 54.43C37.91 53.29 40.2 51.91 42.36 50.34L42.36 50.4C43.5 49.33 44.48 48.1 45.24 46.73Z" fill="#E55645" fill-opacity="1.000000" fill-rule="nonzero"/>
    <path d="M31.92 16.08C31.87 15.98 32.92 16.76 33.33 17C33.74 17.23 33.94 17.41 33.94 17.58C33.94 17.75 33.68 17.92 33.32 17.92C32.96 17.92 32.4 17.8 32.32 17.66C32.24 17.52 32.92 17.66 33.26 17.66L33.55 17.66C32.93 17.21 32.39 16.68 31.92 16.08Z" fill="#000000" fill-opacity="1.000000" fill-rule="nonzero"/>
    <path d="M39.4 16.19C39.4 16.19 38.41 17.46 38.32 17.52C38.23 17.58 38.15 17.86 38.51 17.81C38.92 17.75 39.33 17.66 39.72 17.53C39.83 17.47 39.79 17.33 39.6 17.35C39.41 17.37 38.93 17.4 38.61 17.46L39.45 16.2C39.45 16.2 39.48 16.08 39.4 16.19Z" fill="#000000" fill-opacity="1.000000" fill-rule="nonzero"/>
    <path d="M36.27 22.25C36.73 22.05 37.12 21.7 37.36 21.26C37.64 20.61 37.36 20.36 36.92 20.27C36.32 20.16 35.69 20.28 35.17 20.61C34.79 20.97 34.84 21.33 35.17 21.6C35.51 21.86 35.88 22.08 36.27 22.25Z" fill="#000000" fill-opacity="1.000000" fill-rule="nonzero"/>
    <path d="M35.91 23.5C35.8 23.73 35.64 23.93 35.45 24.1C35.17 24.33 34.82 24.46 34.46 24.48C33.91 24.53 33.36 24.37 32.92 24.04C32.72 23.92 32.54 23.77 32.39 23.59C32.29 23.49 32.17 23.4 32.03 23.35C32.03 23.35 32.78 27.42 34.6 28.08C36.41 28.73 36.75 27.32 36.8 26.95C36.86 25.82 36.58 24.7 35.98 23.73C35.98 23.43 35.96 23.63 35.91 23.5Z" fill="#F06351" fill-opacity="1.000000" fill-rule="nonzero"/>
    <path d="M34.22 24.63C33.75 24.57 33.3 24.41 32.9 24.16C32.5 23.92 32.15 23.6 31.87 23.22C31.85 23.19 31.83 23.15 31.83 23.12C31.83 23.08 31.85 23.05 31.87 23.02C31.89 23 31.9 22.99 31.92 22.99C31.93 22.98 31.95 22.98 31.97 22.98C31.99 22.98 32.01 22.98 32.03 22.99C32.04 22.99 32.06 23 32.07 23.02C32.32 23.36 32.63 23.65 32.99 23.88C33.35 24.1 33.76 24.25 34.18 24.32C34.51 24.29 34.83 24.19 35.11 24.02C35.4 23.84 35.64 23.61 35.81 23.33L35.95 23.14L36.05 23.36C36.05 23.36 36.43 24.11 37.05 24.15C37.67 24.19 38.11 23.73 38.68 22.87C38.7 22.84 38.73 22.82 38.77 22.81C38.81 22.8 38.84 22.81 38.88 22.83C38.91 22.85 38.93 22.88 38.94 22.92C38.94 22.96 38.94 23 38.92 23.03C38.25 24 37.62 24.47 37.03 24.43C36.8 24.4 36.58 24.32 36.39 24.19C36.2 24.06 36.03 23.9 35.91 23.7C35.72 23.97 35.46 24.2 35.17 24.36C34.88 24.52 34.55 24.61 34.22 24.63Z" fill="#000000" fill-opacity="1.000000" fill-rule="nonzero"/>
    <path d="M39.91 34.27C39.91 36.32 38.24 37.99 36.17 37.99C34.11 37.99 32.43 36.32 32.43 34.27C32.43 32.21 34.11 30.55 36.17 30.55C38.24 30.55 39.91 32.21 39.91 34.27Z" fill="#FDC305" fill-opacity="1.000000" fill-rule="evenodd"/>
    <path d="M41.13 31.24L38.01 32.54L39.16 26.96L31.67 36.64L34.8 35.34L33.65 40.93L41.13 31.24ZM33.76 35.04L37.91 29.67L37.1 33.64L39.1 32.83L34.91 38.2L35.72 34.24L33.76 35.04Z" fill="#111111" fill-opacity="1.000000" fill-rule="nonzero"/>
    <path d="M33.48 32.47C33.48 33.08 32.98 33.58 32.36 33.58C31.74 33.58 31.24 33.08 31.24 32.47C31.24 31.86 31.74 31.36 32.36 31.36C32.98 31.36 33.48 31.86 33.48 32.47Z" fill="#111111" fill-opacity="1.000000" fill-rule="evenodd"/>
    <path d="M39.65 36.83C39.65 37.26 39.3 37.61 38.87 37.61C38.43 37.61 38.08 37.26 38.08 36.83C38.08 36.39 38.43 36.04 38.87 36.04C39.3 36.04 39.65 36.39 39.65 36.83Z" fill="#111111" fill-opacity="1.000000" fill-rule="evenodd"/>
    <path d="M40.17 35.11C40.17 35.3 40.02 35.46 39.82 35.46C39.63 35.46 39.47 35.3 39.47 35.11C39.47 34.92 39.63 34.76 39.82 34.76C40.02 34.76 40.17 34.92 40.17 35.11Z" fill="#111111" fill-opacity="1.000000" fill-rule="evenodd"/>
    <path d="M45.77 20.98C43.97 22.6 42.27 24.32 40.69 26.15C39.12 27.97 37.34 29.6 35.39 31.01C35.17 30.49 33.77 29.5 33.77 29.5C33.77 29.5 30.63 27.37 28.58 25.7C27.47 24.78 26.42 23.78 25.45 22.72L23.45 22.61C26.33 26.79 30.55 29.88 35.42 31.38C36.28 31.24 38.7 29.52 40.5 28.13C42.64 26.32 44.64 24.36 46.49 22.26C46.99 21.68 47.37 21 47.63 20.28C46.49 20.66 45.77 20.98 45.77 20.98Z" fill="#F06351" fill-opacity="1.000000" fill-rule="nonzero"/>
    <path d="M65.07 3.47L56.63 12.83L55.41 10.86L63.54 0L65.07 3.47Z" fill="#FDC305" fill-opacity="1.000000" fill-rule="nonzero"/>
    <path d="M62.5 17.12L68.03 13.04L67.25 9.33L61.86 14.1L62.5 17.12Z" fill="#FDC305" fill-opacity="1.000000" fill-rule="nonzero"/>
    <path d="M59.78 48.97L65.89 52.12L68.9 49.8L62.22 47.07L59.78 48.97Z" fill="#FDC305" fill-opacity="1.000000" fill-rule="nonzero"/>
    <path d="M1.94 5.92L5 2.58L14.27 11.51L13.05 13.77L1.94 5.92Z" fill="#FDC305" fill-opacity="1.000000" fill-rule="nonzero"/>
    <path d="M7.36 16.14L2.67 13.04L0.27 16.88L5.41 19.26L7.36 16.14Z" fill="#FDC305" fill-opacity="1.000000" fill-rule="nonzero"/>
    <path d="M13.87 52.12L9.33 55.44L12.13 59L16.14 55.01L13.87 52.12Z" fill="#FDC305" fill-opacity="1.000000" fill-rule="nonzero"/>
    <path d="M25.87 27.77C25.87 27.77 22.06 26.34 20.67 25.95C20.01 25.67 19.29 25.58 18.58 25.69C17.87 25.8 17.21 26.11 16.68 26.58C16.13 27.05 15.69 27.64 15.4 28.3C15.1 28.96 14.95 29.68 14.95 30.4C15.16 30.86 15.32 31.34 15.43 31.84C15.48 32.31 14.23 32.26 13.43 32.26C12.64 32.26 12.52 30.83 13.14 29.16C13.64 27.87 14.24 26.63 14.96 25.45C9.52 28.27 0 34.77 0 34.77C2.72 34.61 5.46 34.69 8.17 35.01C13.4 35.54 13.15 39.64 13.15 39.64C15 39.14 16.87 38.77 18.77 38.54C20.89 38.4 21.04 40.64 21.04 40.64L21.57 44.47C22.37 43.61 23.25 42.83 24.21 42.13C25.44 41.15 27.01 40.69 28.58 40.84L25.87 27.77Z" fill="#F06351" fill-opacity="1.000000" fill-rule="nonzero"/>
</svg>
