<svg width="101.000000" height="18.000000" viewBox="0 0 101 18" fill="none" xmlns="http://www.w3.org/2000/svg" xmlns:xlink="http://www.w3.org/1999/xlink">
	<defs/>
	<path id="Vector" d="M1.21 16.47C0.33 15.19 -0.09 13.66 0.01 12.13L0.01 5.86C-0.1 4.31 0.32 2.78 1.2 1.48C1.99 0.49 3.35 -0.01 5.27 4.57e-5C7.19 0 8.49 0.44 9.17 1.31C10 2.38 10.41 3.72 10.31 5.06L10.31 6.53L6.76 6.53L6.76 4.93C6.76 4.51 6.72 4.09 6.65 3.68C6.61 3.38 6.47 3.1 6.25 2.89C6.11 2.77 5.96 2.69 5.79 2.64C5.62 2.58 5.44 2.56 5.26 2.58C5.01 2.54 4.75 2.58 4.52 2.69C4.29 2.8 4.1 2.98 3.97 3.2C3.75 3.79 3.65 4.42 3.68 5.04L3.68 13C3.64 13.63 3.76 14.26 4.02 14.84C4.14 15.04 4.33 15.21 4.55 15.32C4.77 15.43 5.02 15.47 5.26 15.45C5.5 15.48 5.75 15.44 5.96 15.33C6.18 15.22 6.35 15.04 6.46 14.83C6.67 14.24 6.76 13.62 6.73 13L6.73 11.33L10.28 11.33L10.28 12.77C10.38 14.14 10.01 15.49 9.22 16.62C8.47 17.54 7.17 18 5.31 18C3.46 18 2.01 17.49 1.21 16.47Z" fill="#111111" fill-opacity="1.000000" fill-rule="nonzero"/>
	<path id="Vector" d="M15.15 0.24L19.22 0.24L22.65 17.79L19.27 17.79L18.66 13.91L15.81 13.91L15.12 17.76L11.69 17.76L15.15 0.24ZM18.28 11.7L17.2 4.65L16.13 11.7L18.28 11.7Z" fill="#111111" fill-opacity="1.000000" fill-rule="nonzero"/>
	<path id="Vector" d="M25.28 2.88L22.5 2.88L22.5 0.24L31.69 0.24L31.69 2.88L28.95 2.88L28.95 17.76L25.27 17.76L25.28 2.88Z" fill="#111111" fill-opacity="1.000000" fill-rule="nonzero"/>
	<path id="Vector" d="M38.91 0.24L45.88 0.24L45.88 2.06L41.42 2.06L41.42 7.85L45.04 7.85L45.04 9.58L41.42 9.58L41.42 16.01L45.92 16.01L45.92 17.76L38.91 17.76L38.91 0.24Z" fill="#444444" fill-opacity="1.000000" fill-rule="nonzero"/>
	<path id="Vector" d="M47.95 0.24L49.66 0.24L54.81 11.88L54.81 0.24L56.9 0.24L56.9 17.79L55.3 17.79L50.15 5.82L50.15 17.76L48.03 17.76L47.95 0.24Z" fill="#444444" fill-opacity="1.000000" fill-rule="nonzero"/>
	<path id="Vector" d="M59.67 0.24L66.64 0.24L66.64 2.06L62.18 2.06L62.18 7.85L65.83 7.85L65.83 9.58L62.21 9.58L62.21 16.01L66.69 16.01L66.69 17.76L59.67 17.76L59.67 0.24Z" fill="#444444" fill-opacity="1.000000" fill-rule="nonzero"/>
	<path id="Vector" d="M68.7 0.24L72.32 0.24C73.75 0.13 75.17 0.51 76.33 1.33C77.19 2.06 77.61 3.25 77.61 4.89C77.61 7.12 76.87 8.48 75.39 8.98L77.96 17.76L75.52 17.76L73.16 9.54L71.22 9.54L71.22 17.76L68.7 17.76L68.7 0.24ZM72.13 7.76C72.96 7.84 73.79 7.61 74.45 7.12C74.72 6.81 74.92 6.45 75.04 6.06C75.16 5.67 75.2 5.26 75.15 4.86C75.17 4.29 75.09 3.73 74.9 3.19C74.83 2.99 74.72 2.81 74.57 2.65C74.42 2.5 74.24 2.37 74.05 2.28C73.49 2.06 72.89 1.96 72.29 1.99L71.18 1.99L71.18 7.79L72.13 7.76Z" fill="#444444" fill-opacity="1.000000" fill-rule="nonzero"/>
	<path id="Vector" d="M80.99 16.47C80.17 15.12 79.79 13.56 79.9 12L79.9 6.15C79.87 5.02 80.01 3.89 80.33 2.8C80.57 1.99 81.1 1.28 81.82 0.79C82.68 0.28 83.69 0.04 84.7 0.09C85.35 0.03 86.01 0.11 86.63 0.32C87.25 0.53 87.82 0.88 88.28 1.32C89.11 2.45 89.5 3.82 89.38 5.19L89.38 5.84L87.02 5.84L87.02 5.3C87.04 4.65 86.99 4 86.87 3.36C86.79 2.95 86.56 2.59 86.22 2.33C85.77 2.08 85.26 1.96 84.74 1.99C84.18 1.95 83.63 2.11 83.19 2.46C82.83 2.79 82.6 3.22 82.53 3.7C82.42 4.39 82.37 5.08 82.38 5.78L82.38 12.29C82.32 13.28 82.49 14.27 82.89 15.18C83.12 15.46 83.42 15.68 83.75 15.84C84.09 15.99 84.46 16.06 84.83 16.06C85.2 16.05 85.56 15.96 85.89 15.79C86.22 15.63 86.5 15.39 86.72 15.1C87.14 14.14 87.32 13.1 87.25 12.05L87.25 10.82L84.97 10.82L84.97 9.09L89.51 9.09L89.51 17.76L87.96 17.76L87.71 15.75C87.51 16.42 87.09 17 86.51 17.41C85.93 17.81 85.22 18.01 84.51 17.98C83.84 18.04 83.17 17.93 82.55 17.66C81.93 17.4 81.4 16.99 80.99 16.47Z" fill="#444444" fill-opacity="1.000000" fill-rule="nonzero"/>
	<path id="Vector" d="M94.73 11.58L90.84 0.24L93.17 0.24L95.93 8.69L98.64 0.24L101 0.24L97.14 11.58L97.14 17.76L94.73 17.76L94.73 11.58Z" fill="#444444" fill-opacity="1.000000" fill-rule="nonzero"/>
</svg>
