<svg width="60.000000" height="50.000000" viewBox="0 0 60 50" fill="none" xmlns="http://www.w3.org/2000/svg" xmlns:xlink="http://www.w3.org/1999/xlink">
	<desc>
			Created with Pixso.
	</desc>
	<defs/>
	<path d="M51.2 19.05C49.73 15.44 47.35 12.3 44.32 9.92C41.28 7.54 37.68 6.02 33.89 5.5C30.1 4.99 26.24 5.49 22.69 6.97C19.15 8.45 16.05 10.85 13.7 13.94C11.35 17.02 9.84 20.68 9.3 24.54C8.77 28.41 9.24 32.35 10.67 35.98C12.09 39.6 14.42 42.78 17.43 45.2C20.44 47.61 24.01 49.19 27.8 49.76C27.3 47.93 26.8 45.92 26.35 43.78C27.65 44.64 29.01 45.38 30.42 46C30.42 46 30.52 47.89 30.66 49.99C32.19 50.02 33.72 49.88 35.22 49.58C35.18 49.36 35.18 49.14 35.22 48.92C35.47 47.29 36.15 44.35 36.29 42.45C37.28 41.51 38.11 40.42 38.77 39.22L38.72 39.6C38.25 43.32 37.26 47.29 36.66 48.39C36.47 48.75 36.23 49.09 35.96 49.39C39.05 48.65 41.95 47.23 44.46 45.23C46.96 43.23 49.01 40.7 50.46 37.82C51.91 34.93 52.73 31.76 52.86 28.51C52.98 25.27 52.42 22.04 51.2 19.05ZM49.95 22.35C49.57 22.73 48.79 22.98 48.66 21.85C48.54 20.71 48.5 19.92 48.5 19.92C48.5 19.92 46.85 16.93 46.23 16.89C45.62 16.86 41.25 19.92 40.09 21.25C39.09 22.38 38.9 22.3 38.9 24.28C38.9 25.77 39.09 31.41 38.98 35.72L32.01 37.61C29.82 38.25 27.59 38.75 25.34 39.11L24.49 34.03L24.37 34.03L22.17 22.54C22.17 22.54 18.91 21.28 17.71 20.94C17.15 20.69 16.53 20.61 15.92 20.7C15.32 20.8 14.75 21.07 14.29 21.49C13.82 21.91 13.45 22.42 13.19 23C12.94 23.58 12.81 24.21 12.81 24.85C12.99 25.25 13.13 25.68 13.22 26.11C13.27 26.53 12.2 26.49 11.51 26.49C10.83 26.49 10.73 25.23 11.27 23.76C11.69 22.62 12.21 21.53 12.82 20.49C13.29 19.57 13.88 18.72 14.59 17.97C14.59 17.97 14.71 17.68 15.66 17.76C16.61 17.85 21.89 18.14 21.89 18.14L21.93 16.16C27.67 15.35 33.45 14.96 39.24 14.99C39.24 15.52 39.24 16.05 39.24 16.59C41.43 15.56 43.79 14.97 46.2 14.84C46.33 14.84 46.46 14.87 46.57 14.93C46.69 14.99 46.79 15.07 46.86 15.18C47.15 15.56 48.92 17.8 49.13 18.12C49.7 18.96 50.22 19.83 50.69 20.74C50.53 21.31 50.28 21.85 49.95 22.34L49.95 22.35Z" fill="#FDC305" fill-opacity="1.000000" fill-rule="nonzero"/>
	<path d="M48.28 17.01C48.68 17.54 49.03 18 49.13 18.14C49.71 18.98 50.23 19.85 50.7 20.76C50.54 21.31 50.29 21.83 49.96 22.31C49.59 22.68 48.81 22.94 48.68 21.8C48.55 20.67 48.5 19.92 48.5 19.92C48.5 19.92 46.85 16.93 46.24 16.89C45.62 16.86 41.25 19.92 40.09 21.25C39.09 22.38 38.9 22.3 38.9 24.28C38.9 25.59 39.04 30.08 39.01 34.08C40.56 34.25 42.83 34.69 43.52 35.72C43.52 35.72 43.27 29.45 50.19 32.73C50.19 32.73 50.43 24.19 60 26.38C56.74 22.49 52.76 19.3 48.28 17.01Z" fill="#F06351" fill-opacity="1.000000" fill-rule="nonzero"/>
	<path d="M39.27 14.99C39.31 10.15 38.91 5.33 38.08 0.57C38.08 0.57 37.95 -0.57 37.33 0.36C36.82 1.46 36.48 2.64 36.31 3.85C32.65 3.61 28.98 3.71 25.34 4.14C24.64 1.75 23.44 0.65 22.87 0.94C22.3 1.23 22.23 3.8 22.23 3.8L21.95 16.16C27.69 15.35 33.48 14.96 39.27 14.99Z" fill="#F06351" fill-opacity="1.000000" fill-rule="nonzero"/>
	<path d="M38.78 39.22C38.89 38.28 38.95 37.04 38.98 35.67L32.01 37.57C29.82 38.22 27.6 38.74 25.34 39.11L26.29 43.47C26.29 43.57 26.29 43.67 26.35 43.76C27.65 44.62 29.01 45.36 30.42 45.99C32.49 44.98 34.46 43.77 36.31 42.38L36.31 42.44C37.29 41.5 38.12 40.41 38.78 39.22Z" fill="#E55645" fill-opacity="1.000000" fill-rule="nonzero"/>
	<path d="M27.36 12.26C27.32 12.17 28.22 12.85 28.57 13.06C28.92 13.27 29.09 13.43 29.09 13.58C29.09 13.72 28.87 13.87 28.56 13.87C28.25 13.87 27.77 13.77 27.7 13.65C27.63 13.52 28.22 13.65 28.51 13.65L28.75 13.65C28.23 13.25 27.76 12.79 27.36 12.26Z" fill="#000000" fill-opacity="1.000000" fill-rule="nonzero"/>
	<path d="M33.77 12.35C33.77 12.35 32.92 13.47 32.84 13.52C32.77 13.58 32.7 13.82 33.01 13.78C33.36 13.72 33.71 13.64 34.05 13.53C34.14 13.48 34.11 13.36 33.95 13.37C33.78 13.39 33.36 13.42 33.09 13.47L33.82 12.36C33.82 12.36 33.84 12.26 33.77 12.35Z" fill="#000000" fill-opacity="1.000000" fill-rule="nonzero"/>
	<path d="M31.09 17.68C31.49 17.51 31.81 17.2 32.02 16.81C32.26 16.24 32.02 16.02 31.65 15.94C31.13 15.84 30.59 15.95 30.15 16.24C29.82 16.56 29.86 16.87 30.15 17.11C30.44 17.34 30.75 17.53 31.09 17.68Z" fill="#000000" fill-opacity="1.000000" fill-rule="nonzero"/>
	<path d="M30.78 18.78C30.68 18.98 30.55 19.16 30.39 19.31C30.14 19.51 29.85 19.62 29.53 19.64C29.06 19.69 28.59 19.55 28.22 19.26C28.04 19.15 27.89 19.02 27.76 18.86C27.68 18.77 27.57 18.69 27.46 18.64C27.46 18.64 28.1 22.23 29.65 22.81C31.21 23.38 31.5 22.14 31.54 21.81C31.59 20.82 31.35 19.83 30.84 18.98C30.84 18.72 30.82 18.9 30.78 18.78Z" fill="#F06351" fill-opacity="1.000000" fill-rule="nonzero"/>
	<path d="M29.33 19.78C28.93 19.72 28.54 19.58 28.2 19.36C27.85 19.15 27.55 18.87 27.32 18.53C27.3 18.51 27.29 18.48 27.29 18.44C27.29 18.41 27.3 18.38 27.32 18.36C27.33 18.35 27.34 18.34 27.36 18.33C27.37 18.32 27.39 18.32 27.4 18.32C27.42 18.32 27.44 18.32 27.45 18.33C27.46 18.34 27.48 18.35 27.49 18.36C27.7 18.66 27.97 18.92 28.28 19.11C28.59 19.31 28.93 19.44 29.29 19.5C29.58 19.48 29.85 19.39 30.1 19.24C30.34 19.08 30.55 18.88 30.7 18.63L30.82 18.46L30.9 18.65C30.9 18.65 31.23 19.32 31.76 19.35C32.29 19.39 32.66 18.98 33.15 18.23C33.17 18.2 33.2 18.18 33.23 18.17C33.26 18.17 33.29 18.17 33.32 18.19C33.35 18.21 33.37 18.24 33.37 18.27C33.38 18.3 33.37 18.34 33.36 18.37C32.79 19.22 32.25 19.63 31.74 19.6C31.54 19.57 31.36 19.5 31.19 19.39C31.02 19.28 30.88 19.13 30.78 18.96C30.61 19.2 30.4 19.39 30.15 19.54C29.89 19.68 29.61 19.76 29.33 19.78Z" fill="#000000" fill-opacity="1.000000" fill-rule="nonzero"/>
	<path d="M34.21 28.25C34.21 30.06 32.78 31.52 31 31.52C29.23 31.52 27.8 30.06 27.8 28.25C27.8 26.44 29.23 24.98 31 24.98C32.78 24.98 34.21 26.44 34.21 28.25Z" fill="#FDC305" fill-opacity="1.000000" fill-rule="evenodd"/>
	<path d="M35.25 25.59L32.58 26.73L33.56 21.82L27.15 30.34L29.82 29.19L28.84 34.11L35.25 25.59ZM28.93 28.93L32.49 24.21L31.8 27.7L33.51 26.99L29.93 31.71L30.62 28.22L28.93 28.93Z" fill="#111111" fill-opacity="1.000000" fill-rule="nonzero"/>
	<path d="M28.7 26.67C28.7 27.21 28.27 27.65 27.74 27.65C27.21 27.65 26.78 27.21 26.78 26.67C26.78 26.13 27.21 25.69 27.74 25.69C28.27 25.69 28.7 26.13 28.7 26.67Z" fill="#111111" fill-opacity="1.000000" fill-rule="evenodd"/>
	<path d="M33.99 30.5C33.99 30.88 33.69 31.19 33.31 31.19C32.94 31.19 32.64 30.88 32.64 30.5C32.64 30.12 32.94 29.81 33.31 29.81C33.69 29.81 33.99 30.12 33.99 30.5Z" fill="#111111" fill-opacity="1.000000" fill-rule="evenodd"/>
	<path d="M34.43 28.99C34.43 29.16 34.3 29.3 34.13 29.3C33.97 29.3 33.83 29.16 33.83 28.99C33.83 28.82 33.97 28.69 34.13 28.69C34.3 28.69 34.43 28.82 34.43 28.99Z" fill="#111111" fill-opacity="1.000000" fill-rule="evenodd"/>
	<path d="M39.23 16.57C37.69 17.99 36.23 19.51 34.88 21.11C33.53 22.71 32 24.14 30.34 25.39C30.15 24.93 28.94 24.06 28.94 24.06C28.94 24.06 26.26 22.19 24.5 20.71C23.54 19.9 22.65 19.03 21.81 18.09L20.1 18C22.57 21.68 26.19 24.4 30.36 25.71C31.1 25.59 33.17 24.08 34.72 22.85C36.55 21.26 38.26 19.54 39.85 17.69C40.27 17.18 40.6 16.59 40.82 15.95C39.85 16.28 39.23 16.57 39.23 16.57Z" fill="#F06351" fill-opacity="1.000000" fill-rule="nonzero"/>
	<path d="M22.17 22.54C22.17 22.54 18.91 21.28 17.71 20.94C17.15 20.69 16.53 20.61 15.93 20.7C15.32 20.8 14.75 21.07 14.29 21.49C13.83 21.91 13.45 22.42 13.2 23C12.94 23.58 12.81 24.21 12.81 24.85C13 25.25 13.13 25.68 13.22 26.11C13.27 26.53 12.2 26.49 11.51 26.49C10.83 26.49 10.73 25.23 11.27 23.76C11.69 22.62 12.21 21.53 12.82 20.49C8.16 22.97 0 28.7 0 28.7C2.33 28.55 4.68 28.62 7 28.9C11.49 29.37 11.27 32.98 11.27 32.98C12.85 32.53 14.46 32.21 16.09 32.01C17.9 31.89 18.03 33.86 18.03 33.86L18.48 37.23C19.17 36.47 19.93 35.78 20.75 35.17C21.81 34.31 23.15 33.9 24.5 34.03L22.17 22.54Z" fill="#F06351" fill-opacity="1.000000" fill-rule="nonzero"/>
</svg>
